<?xml version="1.0" standalone="no"?>
<!DOCTYPE svg PUBLIC "-//W3C//DTD SVG 1.1//EN" "http://www.w3.org/Graphics/SVG/1.1/DTD/svg11.dtd" >
<svg xmlns="http://www.w3.org/2000/svg">
<metadata></metadata>
<defs>
<font id="astoria_sansmedium" horiz-adv-x="2031" >
<font-face units-per-em="2048" ascent="1532" descent="-516" />
<missing-glyph horiz-adv-x="522" />
<glyph horiz-adv-x="0" />
<glyph horiz-adv-x="682" />
<glyph unicode="&#x9;" />
<glyph unicode="&#xa;" />
<glyph unicode="&#xd;" />
<glyph />
<glyph />
<glyph />
<glyph />
<glyph />
<glyph />
<glyph />
<glyph unicode=" "  horiz-adv-x="522" />
<glyph unicode="&#x09;" horiz-adv-x="522" />
<glyph unicode="&#xa0;" horiz-adv-x="522" />
<glyph unicode="!" horiz-adv-x="868" d="M276 1434h316l-49 -1067h-221zM285 131q0 61 43.5 104.5t105.5 43.5q60 0 104 -43.5t44 -104.5t-44 -104t-104 -43q-62 0 -105.5 43t-43.5 104z" />
<glyph unicode="&#x22;" horiz-adv-x="972" d="M156 1309v4v4q2 56 41 94.5t94 38.5q38 0 71 -18.5t50 -49.5q26 -48 26 -106q0 -61 -28 -133q-33 -77 -80.5 -135t-124.5 -99l-43 49q6 4 15 10.5t33 29.5t42.5 48.5t34.5 64.5t18 79q-10 -2 -26 -2q-55 0 -89 34t-34 87zM535 1309v4v4q1 55 41 94t96 39q37 0 69.5 -18.5 t49.5 -49.5q26 -48 26 -106q0 -59 -29 -133q-66 -160 -202 -234l-45 49q6 4 15 10.5t33 29.5t42.5 48.5t34.5 64.5t18 79q-10 -2 -27 -2q-55 0 -88.5 34t-33.5 87z" />
<glyph unicode="#" horiz-adv-x="1085" d="M94 702l31 140h164l39 184h-164l29 137h165l58 269h155l-59 -269h158l59 269h156l-60 -269h166l-30 -137h-166l-39 -184h162l-27 -140h-166l-59 -270h-154l59 270h-157l-60 -270h-155l59 270h-164zM449 842h149l37 184h-150z" />
<glyph unicode="$" horiz-adv-x="1132" d="M145 1036v23q4 72 32 131.5t74.5 99.5t99.5 65.5t114 39.5v178h213v-166q155 -13 246 -84v-240q-131 115 -312 115q-93 0 -147 -33t-59 -92v-12q0 -23 6 -42t24 -39t31.5 -33t48.5 -34.5t53 -31.5t66 -37q51 -27 75.5 -41t69.5 -42.5t68 -49t54 -54t46.5 -66t27 -76 t11.5 -91.5v-21q-7 -148 -91.5 -238.5t-217.5 -125.5v-207h-213v186q-189 11 -311 95v243q171 -133 350 -133q92 0 153.5 37t71.5 113q0 4 1 11t1 11q0 44 -33.5 83.5t-65.5 59t-123 68.5q-8 5 -12.5 7.5t-12 6.5t-13.5 7q-62 33 -98.5 55t-85.5 61t-76 77t-46.5 94 t-19.5 122z" />
<glyph unicode="%" horiz-adv-x="1765" d="M115 1040q0 186 93 300t245 114t245 -114t93 -300t-93 -300.5t-245 -114.5t-245 114.5t-93 300.5zM303 1040q0 -126 40 -198t110 -72t109.5 72t39.5 198q0 125 -39.5 198t-109.5 73t-110 -73t-40 -198zM369 0l858 1434h170l-858 -1434h-170zM977 397q0 186 93 300 t245 114q151 0 243.5 -114t92.5 -300t-92.5 -299.5t-243.5 -113.5q-152 0 -245 113.5t-93 299.5zM1165 397q0 -126 40 -198t110 -72q69 0 109 72t40 198q0 125 -40 198t-109 73q-70 0 -110 -73t-40 -198z" />
<glyph unicode="&#x26;" horiz-adv-x="1476" d="M94 403q0 249 273 398l-11 14q-106 125 -106 281q0 31 2 45q6 59 31 114.5t70.5 104t121 77.5t170.5 29q101 0 176 -27t117 -73.5t62 -102t20 -120.5q0 -107 -66 -197.5t-213 -169.5l289 -330q53 119 53 283q0 62 -8 119h250q6 -53 6 -109q0 -125 -36.5 -248t-106.5 -225 l231 -266h-354l-72 82q-159 -105 -395 -105q-228 0 -366 109.5t-138 316.5zM383 422q0 -3 1 -10t1 -11q3 -84 71.5 -150.5t188.5 -66.5q107 0 209 60l-352 403q-119 -72 -119 -225zM518 1116q0 -86 74 -168l20 -24q74 42 116.5 89t43.5 115v7v2q0 67 -37.5 100t-81.5 33 q-46 0 -86 -32.5t-47 -92.5q-2 -10 -2 -29z" />
<glyph unicode="'" horiz-adv-x="552" d="M135 1309v4v4q2 56 41 94.5t94 38.5q38 0 71 -18.5t50 -49.5q27 -50 27 -106q0 -59 -29 -133q-33 -77 -80.5 -135t-124.5 -99l-43 49q6 4 15 10.5t33.5 29.5t43 48.5t34.5 64.5t18 79q-10 -2 -27 -2q-55 0 -89 34t-34 87z" />
<glyph unicode="(" horiz-adv-x="704" d="M113 717q0 278 105.5 530.5t293.5 415.5h182q-157 -198 -226 -426t-69 -520t69 -521.5t226 -426.5h-182q-188 163 -293.5 416t-105.5 532z" />
<glyph unicode=")" horiz-adv-x="704" d="M10 -231q157 197 226 426.5t69 521.5t-69 520t-226 426h183q188 -163 293.5 -415.5t105.5 -530.5q0 -279 -105.5 -532t-293.5 -416h-183z" />
<glyph unicode="*" horiz-adv-x="800" d="M115 1081l178 72l-178 72l80 135l151 -115l-24 187h157l-24 -187l151 115l80 -135l-178 -72l178 -72l-80 -135l-151 115l24 -187h-157l24 187l-151 -115z" />
<glyph unicode="+" horiz-adv-x="1206" d="M94 420v188h404v420h211v-420h403v-188h-403v-420h-211v420h-404z" />
<glyph unicode="," horiz-adv-x="542" d="M115 121v2v6q1 61 45 104t104 43q43 0 79 -20t56 -55q29 -56 29 -117q0 -65 -33 -147q-33 -74 -93 -127t-132 -68l-39 72q6 1 15 4.5t33 17t43 31t36.5 50t20.5 71.5q-20 -4 -31 -4q-59 0 -96 39t-37 98z" />
<glyph unicode="-" horiz-adv-x="763" d="M90 496v190h584v-190h-584z" />
<glyph unicode="." horiz-adv-x="524" d="M115 133q0 62 43 105t104 43q62 0 105 -43.5t43 -104.5t-43 -104t-105 -43t-104.5 43t-42.5 104z" />
<glyph unicode="/" horiz-adv-x="671" d="M-20 -45l512 1520h200l-512 -1520h-200z" />
<glyph unicode="0" horiz-adv-x="1333" d="M84 715q0 337 162 541t422 204q259 0 420 -204t161 -541q0 -338 -161.5 -543t-419.5 -205q-171 0 -303.5 92t-206.5 262.5t-74 393.5zM377 715q0 -241 79.5 -385t211.5 -144t211 144t79 385q0 239 -79 382.5t-211 143.5t-211.5 -143.5t-79.5 -382.5z" />
<glyph unicode="1" horiz-adv-x="819" d="M74 1102v203l463 137h86v-1442h-275v1180z" />
<glyph unicode="2" horiz-adv-x="1128" d="M94 0v109q11 11 76 78t91.5 94.5t84.5 91.5t92 105.5t75 97.5t69 104q51 90 73.5 160t22.5 145v6v4v2q0 110 -68 181q-61 61 -168 61q-177 0 -323 -154l-23 234q155 145 396 145q217 0 346 -125t129 -329q0 -177 -108 -363.5t-361 -433.5h508v-213h-912z" />
<glyph unicode="3" horiz-adv-x="1036" d="M94 53l21 244q133 -104 293 -104h4h8q104 0 166.5 61t62.5 158q0 94 -57 151q-76 76 -270 76h-5h-8h-22v205h8h6q206 0 279 76q49 46 49 127q0 84 -56.5 136t-156.5 52q-142 0 -262 -90l-29 225q136 90 342 90q197 0 314.5 -106.5t117.5 -278.5q0 -109 -56.5 -192 t-166.5 -125q126 -40 191 -129.5t65 -208.5q0 -197 -139.5 -324t-358.5 -127q-109 0 -188.5 18t-151.5 66z" />
<glyph unicode="4" horiz-adv-x="1150" d="M43 399v136l641 899h227v-828h187v-207h-187v-399h-272v399h-596zM342 606h297v418z" />
<glyph unicode="5" horiz-adv-x="1114" d="M135 63l23 242q59 -50 135.5 -77t150.5 -27q125 0 193 71t68 179q0 113 -91 184q-75 57 -217 57q-93 0 -198 -24l41 764h680v-213h-443l-18 -297h24q232 0 367 -123q68 -61 103.5 -150t35.5 -192q0 -207 -146.5 -344.5t-373.5 -137.5q-196 0 -334 88z" />
<glyph unicode="6" horiz-adv-x="1173" d="M104 553q0 144 39.5 273.5t107 229.5t160 182.5t196 138t218.5 89.5l117 -198q-209 -59 -340.5 -171t-191.5 -311q122 82 252 82q183 0 301 -112q127 -115 127 -322q0 -108 -39.5 -197.5t-106 -147t-152 -89t-180.5 -31.5q-222 0 -356.5 139.5t-149.5 376.5q-2 23 -2 68z M387 508q0 -173 80 -262q58 -64 143 -64h2q84 0 138 54q61 64 61 178q0 113 -59 172q-53 53 -140 53h-4h-6q-54 0 -111 -26t-102 -70q0 -6 -1 -17.5t-1 -17.5z" />
<glyph unicode="7" horiz-adv-x="1097" d="M104 1219v213h955l-639 -1473l-256 86l516 1174h-576z" />
<glyph unicode="8" horiz-adv-x="1177" d="M88 395q0 120 61.5 214.5t169.5 138.5q-64 27 -109 79t-64 108t-19 114q0 126 61.5 220t165 141.5t234.5 47.5q202 0 332.5 -110t130.5 -299q0 -90 -49 -175.5t-144 -125.5q108 -44 170 -138.5t62 -214.5q0 -198 -140.5 -313t-361.5 -115q-219 0 -359.5 115t-140.5 313z M373 406q0 -100 60.5 -161t154.5 -61q95 0 155 61t60 161t-60 161.5t-155 61.5q-94 0 -154.5 -61.5t-60.5 -161.5zM391 1044q0 -91 55.5 -147.5t141.5 -56.5t141 56.5t55 147.5q0 93 -55 150t-141 57t-141.5 -57t-55.5 -150z" />
<glyph unicode="9" horiz-adv-x="1183" d="M94 1001q0 108 41 197.5t110.5 146t156.5 87t182 30.5q221 0 350 -138.5t143 -375.5q2 -25 2 -69q0 -180 -59 -337.5t-160 -271t-228.5 -191.5t-271.5 -114l-120 205q66 20 127 47t126 69.5t117 93.5t96 121.5t68 151.5q-107 -80 -250 -80q-184 0 -303 113 q-127 118 -127 315zM373 1024q0 -111 59 -170q56 -53 139 -53h2h2h9q125 3 213 88v35q0 187 -70 262q-57 63 -141 63h-2q-91 0 -144 -53q-67 -67 -67 -172z" />
<glyph unicode=":" horiz-adv-x="499" d="M102 133q0 61 43 104.5t105 43.5q61 0 104 -43t43 -105q0 -61 -42.5 -104t-104.5 -43t-105 43t-43 104zM102 645q0 61 43 104.5t105 43.5q61 0 104 -43t43 -105q0 -61 -42.5 -104t-104.5 -43t-105 43t-43 104z" />
<glyph unicode=";" horiz-adv-x="518" d="M102 121v2v6q1 61 45.5 104t104.5 43q43 0 79 -20t56 -55q29 -56 29 -117q0 -65 -33 -147q-33 -74 -93 -127t-132 -68l-39 72q5 1 14.5 4.5t33.5 17t43 31t36 50t20 71.5q-20 -4 -30 -4q-59 0 -96.5 39t-37.5 98zM109 645q0 62 43 105t104 43t104 -43t43 -105 q0 -61 -42.5 -104t-104.5 -43t-104.5 43t-42.5 104z" />
<glyph unicode="&#x3c;" horiz-adv-x="1175" d="M94 459v116l987 443v-184l-719 -316l719 -315v-187z" />
<glyph unicode="=" horiz-adv-x="1181" d="M94 244v188h993v-188h-993zM94 598v188h993v-188h-993z" />
<glyph unicode="&#x3e;" horiz-adv-x="1175" d="M94 16v187l719 315l-719 316v184l987 -443v-116z" />
<glyph unicode="?" horiz-adv-x="966" d="M123 1350q72 58 151 83t193 25q57 0 109.5 -11t102 -37t85.5 -64.5t58 -97.5t22 -132q0 -62 -12.5 -114t-42 -100.5t-46 -71t-57.5 -70.5q-8 -9 -38 -44t-39.5 -47.5t-30.5 -46t-29 -59.5t-15.5 -66.5t-7.5 -86.5v-41h-221q-6 47 -6 94q0 207 131 358q71 81 98 138 t27 112q0 19 -2 29q-5 55 -48 95t-126 40q-130 0 -234 -94zM268 131q0 61 43 104.5t105 43.5q60 0 103.5 -43.5t43.5 -104.5q0 -60 -43.5 -103.5t-103.5 -43.5q-61 0 -104.5 43.5t-43.5 103.5z" />
<glyph unicode="@" horiz-adv-x="1595" d="M94 639q0 22 4 76q17 210 124 378t280.5 262.5t380.5 94.5q304 0 473 -190q145 -160 145 -400q0 -55 -8 -102q-12 -85 -37.5 -153.5t-56 -111.5t-69 -75t-70 -47.5t-66 -24.5t-50 -10.5t-28.5 -1.5q-73 0 -122 33.5t-64 97.5q-45 -59 -116 -92t-146 -33q-125 0 -199 90 q-59 77 -59 193q0 61 18 131q41 156 165.5 258t274.5 102q41 0 83 -12.5t63 -38.5l8 -8l20 57h160l-119 -504q-6 -24 -6 -49q0 -39 19 -61q18 -21 51 -21h6q16 1 32.5 6t41 23.5t44.5 48t39 83.5t29 126q7 58 7 92q0 192 -111 318q-131 143 -358 143q-240 0 -410.5 -170 t-192.5 -432q-4 -46 -4 -68q0 -231 136 -373q139 -145 374 -145h4q176 0 316 80l20 -141q-146 -79 -323 -82h-23q-326 0 -510 190q-170 179 -170 463zM596 637q0 -68 33 -109q33 -39 86 -39q4 0 10 3q47 2 98.5 32t83.5 82l70 303q-41 56 -113 56q-89 0 -158.5 -66 t-97.5 -176q-12 -47 -12 -86z" />
<glyph unicode="A" horiz-adv-x="1441" d="M0 0l588 1432h246l608 -1432h-316l-141 342h-573l-133 -342h-279zM494 547h405l-168 416q-24 60 -41 139q-21 -85 -41 -139z" />
<glyph unicode="B" horiz-adv-x="1290" d="M162 0v1432h483q97 0 176 -22t130.5 -58.5t86 -85.5t49.5 -99.5t15 -103.5q0 -101 -45 -179.5t-129 -111.5q278 -71 278 -362q0 -76 -33 -148t-93.5 -131t-157.5 -95t-215 -36h-545zM451 201h184q72 0 125.5 19t83 52t43.5 70.5t14 79.5t-14 79.5t-43.5 70.5t-83 52 t-125.5 19h-184v-442zM451 838h147q60 0 105 17t69 46t35.5 62t11.5 71t-11.5 71t-35.5 62.5t-69 46.5t-105 17h-147v-393z" />
<glyph unicode="C" horiz-adv-x="1429" d="M94 717q0 217 103.5 387.5t289 265t420.5 94.5q281 0 459 -114v-277q-105 87 -212.5 125.5t-246.5 38.5q-220 0 -358.5 -147.5t-138.5 -372.5t138.5 -373.5t358.5 -148.5q139 0 247 38.5t212 124.5v-276q-180 -115 -459 -115q-176 0 -327 55.5t-258 154t-167.5 238 t-60.5 302.5z" />
<glyph unicode="D" horiz-adv-x="1538" d="M162 0v1432h522q150 0 278 -41.5t217.5 -111.5t152.5 -162.5t92.5 -194t29.5 -207.5q0 -132 -48.5 -257t-141 -228.5t-243 -166.5t-337.5 -63h-522zM451 221h165q112 0 203 29.5t149 78t97 114t55.5 133t16.5 139.5t-16.5 140t-55.5 134t-97 115.5t-149 79.5t-203 30 h-165v-993z" />
<glyph unicode="E" horiz-adv-x="1153" d="M162 0v1432h882v-220h-593v-381h573v-210h-573v-402h612v-219h-901z" />
<glyph unicode="F" horiz-adv-x="1095" d="M162 0v1432h844v-220h-555v-381h534v-210h-534v-621h-289z" />
<glyph unicode="G" horiz-adv-x="1536" d="M94 717q0 217 103.5 387.5t289 265t420.5 94.5q281 0 459 -114v-277q-105 87 -212.5 125.5t-246.5 38.5q-220 0 -358.5 -147.5t-138.5 -372.5t138.5 -373.5t358.5 -148.5q117 0 226 28v293h-271v211h549v-639q-206 -121 -504 -121q-176 0 -327 55.5t-258 154t-167.5 238 t-60.5 302.5z" />
<glyph unicode="H" horiz-adv-x="1579" d="M162 0v1432h289v-596h677v596h289v-1432h-289v618h-677v-618h-289z" />
<glyph unicode="I" horiz-adv-x="612" d="M162 0v1432h289v-1432h-289z" />
<glyph unicode="J" horiz-adv-x="780" d="M35 139q52 -10 90 -10q88 0 135 37q42 33 55 84t13 125v1057h290v-1037q0 -269 -155 -391q-110 -88 -293 -88q-60 0 -104 6z" />
<glyph unicode="K" horiz-adv-x="1421" d="M162 0v1432h289v-603l528 603h328l-590 -650l682 -782h-381l-567 670v-670h-289z" />
<glyph unicode="L" horiz-adv-x="1075" d="M162 0v1432h289v-1213h571v-219h-860z" />
<glyph unicode="M" horiz-adv-x="1783" d="M162 0v1432h305l444 -662l443 662h268v-1432h-285v973l-381 -567h-135l-375 567v-973h-284z" />
<glyph unicode="N" horiz-adv-x="1634" d="M162 0v1432h260l776 -945v945h275v-1432h-248l-791 969v-969h-272z" />
<glyph unicode="O" horiz-adv-x="1792" d="M94 717q0 158 60 296t165 237.5t254.5 156.5t321.5 57q233 0 416.5 -96t285 -266t101.5 -385q0 -113 -31.5 -221t-98 -204t-160 -168.5t-227 -114.5t-290.5 -42q-171 0 -319.5 57.5t-253 157.5t-164.5 238.5t-60 296.5zM410 717q0 -226 138 -376.5t347 -150.5 q213 0 350 149t137 378t-137 377.5t-350 148.5q-212 0 -348.5 -148.5t-136.5 -377.5z" />
<glyph unicode="P" horiz-adv-x="1216" d="M162 0v1432h461q111 0 202.5 -26.5t160 -79t106.5 -136t38 -191.5q0 -213 -139.5 -324.5t-367.5 -111.5h-172v-563h-289zM451 772h127q120 0 184.5 59.5t64.5 163.5q0 103 -65 163.5t-184 60.5h-127v-447z" />
<glyph unicode="Q" horiz-adv-x="1804" d="M100 717q0 158 60 297t165 238.5t254.5 156.5t321.5 57q233 0 416.5 -96.5t285 -267t101.5 -385.5q0 -156 -56 -293.5t-178 -247.5t-296 -158q281 -73 526 -84l-78 -243q-455 70 -801 200t-524 320q-94 100 -145.5 229.5t-51.5 276.5zM416 717q0 -148 62.5 -268.5 t174 -189.5t248.5 -69q213 0 350.5 149t137.5 378t-137.5 377.5t-350.5 148.5q-212 0 -348.5 -148.5t-136.5 -377.5z" />
<glyph unicode="R" horiz-adv-x="1361" d="M162 0v1432h446q221 0 348 -108t127 -298q0 -110 -61 -199t-166 -133q63 -48 117 -116.5t119 -171.5l53 -87l192 -319h-317l-186 297q-53 85 -96 142.5t-74.5 91.5t-62 51.5t-54 22.5t-55.5 5h-41v-610h-289zM451 807h98q108 0 175 54t67 155q0 100 -67 153.5t-175 53.5 h-98v-416z" />
<glyph unicode="S" horiz-adv-x="1075" d="M104 1061v26q4 79 36.5 144.5t80.5 107.5t110 71t123 41.5t121 12.5q220 0 340 -94v-258q-139 117 -319 117q-95 0 -148.5 -34t-58.5 -93q-2 -4 -2 -12q0 -62 55 -115.5t172 -118.5q150 -84 210 -133q145 -118 156 -286q1 -15 1 -31v-23q-4 -107 -48 -189t-115 -130 t-155 -71.5t-178 -23.5q-229 0 -372 103v288q158 -161 362 -161q95 0 156 37.5t71 111.5q3 12 3 25q0 31 -13 58t-29.5 47t-56 47t-67 43t-88.5 50q-6 3 -9 5q-63 34 -102 58t-89 65t-78.5 82.5t-48.5 101.5t-20 131z" />
<glyph unicode="T" horiz-adv-x="1185" d="M29 1219v213h1132v-213h-422v-1219h-288v1219h-422z" />
<glyph unicode="U" horiz-adv-x="1544" d="M162 575v857h289v-879q0 -165 82 -257.5t241 -92.5q161 0 243.5 92.5t82.5 257.5v879h282v-857q0 -156 -44 -273.5t-125.5 -190t-192 -108.5t-248.5 -36q-137 0 -247.5 36t-192 108.5t-126 190t-44.5 273.5z" />
<glyph unicode="V" horiz-adv-x="1456" d="M16 1432h334l355 -967q6 -17 19.5 -65.5t16.5 -59.5q5 30 33 123l356 969h310l-563 -1432h-295z" />
<glyph unicode="W" horiz-adv-x="2260" d="M12 1432h336l256 -752q59 -164 76 -260q12 53 82 260l276 752h230l274 -752q56 -145 82 -260q14 71 76 260l252 752h297l-527 -1432h-229l-276 754q-57 147 -82 258q-10 -50 -82 -256l-269 -756h-237z" />
<glyph unicode="X" horiz-adv-x="1560" d="M16 0l586 772l-487 660h364l320 -435l317 435h338l-496 -637l586 -795h-375l-405 561l-410 -561h-338z" />
<glyph unicode="Y" horiz-adv-x="1329" d="M14 1432h340l287 -443q20 -33 37 -71q7 21 37 71l284 443h316l-514 -746v-686h-289v682z" />
<glyph unicode="Z" horiz-adv-x="1282" d="M63 0v115l705 1097h-684v220h1096v-109l-703 -1102h721v-221h-1135z" />
<glyph unicode="[" horiz-adv-x="788" d="M186 -231v1892h510v-195h-262v-1503h262v-194h-510z" />
<glyph unicode="\" horiz-adv-x="671" d="M-20 1475h200l512 -1520h-200z" />
<glyph unicode="]" horiz-adv-x="788" d="M92 -37h262v1503h-262v195h510v-1892h-510v194z" />
<glyph unicode="^" horiz-adv-x="1183" d="M94 655l408 777h174l414 -777h-211l-289 535l-293 -535h-203z" />
<glyph unicode="_" horiz-adv-x="1062" d="M8 -143h1047v-121h-1047v121z" />
<glyph unicode="`" horiz-adv-x="446" d="M33 1358h239l142 -289h-146z" />
<glyph unicode="a" horiz-adv-x="1009" d="M84 246q0 239 315 327q80 24 207 45v29q0 156 -145 156q-160 0 -316 -119v217q62 53 155 82t198 29q182 0 276 -94t94 -242v-461q0 -46 33 -51q6 -2 14 -2q29 0 72 26v-157q-93 -51 -188 -51q-65 0 -107 29.5t-57 74.5q-45 -51 -112.5 -77.5t-133.5 -26.5q-127 0 -216 71 t-89 195zM334 276q0 -51 37.5 -80.5t101.5 -29.5q81 0 131 65v232q-135 -19 -202.5 -64t-67.5 -123z" />
<glyph unicode="b" horiz-adv-x="1171" d="M141 70v1362h262v-502q106 86 254 86q181 0 295 -111q146 -143 146 -399q0 -100 -38.5 -194.5t-107.5 -170t-176.5 -121t-234.5 -45.5q-116 0 -222 25.5t-178 69.5zM403 205q60 -25 136 -25q128 0 206 85t78 233q0 162 -88 247q-60 60 -151 60q-108 0 -181 -76v-524z" />
<glyph unicode="c" horiz-adv-x="956" d="M74 496q0 226 154.5 373t387.5 147q167 0 281 -68v-227q-106 80 -256 80q-127 0 -209 -82.5t-82 -222.5t82 -224t209 -84q81 0 139 18.5t117 61.5v-225q-109 -68 -281 -68q-233 0 -387.5 147.5t-154.5 373.5z" />
<glyph unicode="d" horiz-adv-x="1187" d="M74 496q0 227 157 381q142 139 349 139q137 0 206 -72v488h261v-1432h-250v98q-51 -60 -124.5 -90.5t-152.5 -30.5q-180 0 -297 111q-149 143 -149 408zM348 492q0 -170 84 -254q34 -34 71 -47t89 -13q61 0 113.5 31.5t80.5 83.5v436q-64 74 -180 74q-114 0 -186 -84 t-72 -227z" />
<glyph unicode="e" horiz-adv-x="1087" d="M74 496q0 223 139 371.5t348 148.5q202 0 320 -121q133 -133 133 -381q0 -20 -4 -74h-664q9 -112 76 -179.5t172 -76.5q18 -2 53 -2q161 0 289 92l43 -186q-169 -113 -385 -113q-236 0 -378 145.5t-142 375.5zM354 616h404q-5 92 -52 148.5t-145 56.5q-80 0 -136 -53 t-71 -152z" />
<glyph unicode="f" horiz-adv-x="708" d="M43 786v203h135v43q0 123 27 196t96 136q96 84 256 84q101 0 160 -41v-217q-52 43 -129 43q-73 0 -111.5 -46.5t-38.5 -137.5v-60h219v-203h-219v-786h-260v786h-135z" />
<glyph unicode="g" horiz-adv-x="1110" d="M20 -178q0 96 70.5 170.5t204.5 99.5q-55 4 -88 40.5t-33 78.5q0 51 38 88t95 45q-92 38 -144 116.5t-52 174.5q0 160 119 257t311 97h501v-203h-92q-46 0 -90 7q41 -28 63.5 -76t22.5 -94v-11v-4q0 -132 -98 -217t-273 -98q-80 -6 -116.5 -21t-36.5 -45q0 -58 98 -67 q39 -4 116.5 -12.5t90.5 -10.5q152 -20 237 -93t85 -183v-17q0 -146 -146 -236.5t-373 -90.5q-232 0 -371 83.5t-139 221.5zM266 -168q0 -63 71.5 -98t192.5 -35q122 0 194.5 35t72.5 98t-72.5 98t-194.5 35q-121 0 -192.5 -35t-71.5 -98zM350 635q0 -81 50 -130.5 t128 -49.5t129.5 50t51.5 130q0 79 -52 129.5t-129 50.5t-127.5 -50.5t-50.5 -129.5z" />
<glyph unicode="h" horiz-adv-x="1179" d="M141 0v1432h262v-543q101 125 287 125q56 0 105.5 -12.5t94.5 -41.5t77.5 -72.5t51.5 -109.5t19 -149v-629h-262v631q0 29 -7 56.5t-23 56.5t-50 47t-82 18q-63 0 -119.5 -34.5t-91.5 -102.5v-672h-262z" />
<glyph unicode="i" horiz-adv-x="557" d="M131 1272q0 61 44 104t104 43q61 0 104 -42.5t43 -104.5q0 -60 -43 -103t-104 -43q-60 0 -104 43t-44 103zM147 0v989h263v-989h-263z" />
<glyph unicode="j" horiz-adv-x="589" d="M-41 -305q127 24 171 91t44 210v993h260v-960q0 -56 -3.5 -102t-13.5 -96t-27 -89t-45.5 -77.5t-67.5 -67t-94 -50.5t-124 -34zM156 1272q0 62 43 104.5t104 42.5q60 0 103 -43t43 -104q0 -60 -43 -103t-103 -43q-61 0 -104 43t-43 103z" />
<glyph unicode="k" horiz-adv-x="1101" d="M141 0v1432h262v-811l355 368h309l-428 -422l471 -567h-338l-369 473v-473h-262z" />
<glyph unicode="l" horiz-adv-x="542" d="M141 0v1432h260v-1432h-260z" />
<glyph unicode="m" horiz-adv-x="1777" d="M141 0v989h250l-2 -123q99 146 299 146q94 0 170.5 -40.5t118.5 -125.5q125 166 328 166q68 0 125 -20.5t104.5 -64.5t74.5 -120.5t27 -179.5v-627h-262v627q0 30 -6 58t-21.5 57.5t-47.5 47t-78 17.5q-59 0 -115 -36t-88 -105q2 -12 2 -39v-627h-262v627q0 30 -6.5 58 t-22 57.5t-47.5 47t-78 17.5q-61 0 -114 -34.5t-87 -102.5v-670h-262z" />
<glyph unicode="n" horiz-adv-x="1179" d="M141 0v989h246v-117q106 140 303 140q56 0 105.5 -12.5t94.5 -41.5t77.5 -72.5t51.5 -109.5t19 -149v-627h-262v627q0 31 -6.5 59t-22.5 57t-49.5 46.5t-81.5 17.5q-62 0 -120.5 -36t-92.5 -101v-670h-262z" />
<glyph unicode="o" horiz-adv-x="1230" d="M74 496q0 146 70.5 265.5t194.5 187t275 67.5q236 0 389.5 -147t153.5 -373q0 -99 -35.5 -191t-102 -166t-172.5 -119t-235 -45q-230 0 -384 149t-154 372zM350 496q0 -136 74 -222t190 -86q118 0 193.5 86t75.5 222t-75.5 221.5t-193.5 85.5q-116 0 -190 -85.5 t-74 -221.5z" />
<glyph unicode="p" horiz-adv-x="1171" d="M141 -457v1446h238l2 -106q111 131 276 131q100 0 171.5 -28t129.5 -85q140 -134 140 -399q0 -100 -35.5 -194t-100.5 -168.5t-166 -119.5t-223 -45q-94 0 -170 33v-465h-262zM403 209q64 -37 150 -37q125 0 196.5 86t71.5 236q0 167 -82 249q-61 58 -151 58 q-117 0 -185 -96v-496z" />
<glyph unicode="q" horiz-adv-x="1189" d="M74 485q0 115 42.5 218t121.5 178q139 133 329 133q83 0 147.5 -29.5t100.5 -81.5l21 86h213v-1446h-263v535q-43 -46 -117.5 -74.5t-144.5 -28.5q-190 0 -303 107q-147 138 -147 403zM348 471q0 -151 84 -235q61 -58 156 -58q64 0 116.5 31t81.5 82v426q-64 84 -184 84 q-111 0 -180.5 -84t-73.5 -228v-18z" />
<glyph unicode="r" horiz-adv-x="849" d="M141 0v989h242v-164q37 88 108 137.5t150 49.5q126 0 197 -64l-64 -211q-65 45 -143 45q-112 0 -170 -72t-58 -204v-506h-262z" />
<glyph unicode="s" horiz-adv-x="858" d="M94 47v244q83 -62 149 -86.5t154 -24.5q65 0 102.5 24.5t37.5 67.5q0 66 -88 107l-164 74q-24 11 -46 24.5t-49.5 38t-47.5 52t-34 68t-14 85.5q0 25 2 37q8 66 42.5 116.5t85.5 80t109 44.5t120 15q181 0 288 -72v-227q-66 48 -129 71t-143 23q-45 -1 -79 -17 q-36 -17 -36 -55q0 -50 68 -82l166 -75q196 -88 196 -285q0 -71 -25 -127.5t-65 -91.5t-93.5 -58.5t-105.5 -33t-106 -9.5q-179 0 -295 72z" />
<glyph unicode="t" horiz-adv-x="768" d="M12 786v68l404 387v-252h301v-203h-301v-460q0 -65 29 -102.5t81 -43.5h33q91 0 191 64v-201q-54 -33 -124.5 -51.5t-131.5 -18.5q-157 0 -246.5 80.5t-89.5 247.5v485h-146z" />
<glyph unicode="u" horiz-adv-x="1165" d="M141 395v594h262v-612q0 -197 158 -197q61 0 115.5 37.5t85.5 93.5v678h262v-989h-246v123q-118 -146 -301 -146q-336 0 -336 418z" />
<glyph unicode="v" horiz-adv-x="1021" d="M14 989h283l192 -538q22 -62 29 -105q7 45 29 105l207 538h254l-406 -997h-178z" />
<glyph unicode="w" horiz-adv-x="1564" d="M14 989h279l160 -559q13 -42 20 -100q3 41 25 114l188 545h219l178 -551q25 -77 27 -108q8 68 20 106l170 553h250l-344 -995h-205l-200 610q-19 51 -19 86q-3 -22 -22 -86l-207 -610h-197z" />
<glyph unicode="x" horiz-adv-x="1122" d="M12 0l396 522l-353 467h310l200 -272l201 272h297l-352 -459l399 -530h-307l-248 336l-252 -336h-291z" />
<glyph unicode="y" horiz-adv-x="1130" d="M12 989h318l266 -571l250 571h272l-645 -1448l-270 -2l254 572z" />
<glyph unicode="z" horiz-adv-x="972" d="M80 0v92l432 692h-416v205h783v-90l-430 -692h444v-207h-813z" />
<glyph unicode="{" horiz-adv-x="737" d="M74 639v149q45 3 73 8.5t56 23t43 47.5t24 82t9 128q0 53 -7 160q-2 20 -2 61q0 84 20 150t53 107t79 68t94 37.5t102 10.5q44 0 87 -6v-180q-7 0 -23 1t-23 1q-74 0 -114 -45q-39 -42 -39 -139q0 -7 1 -25t1 -29q4 -106 4 -149q0 -86 -8 -148.5t-28 -114t-55.5 -82.5 t-88.5 -42q102 -21 141 -115.5t39 -269.5q0 -44 -4 -150q0 -10 -1 -29t-1 -26q0 -95 39 -137q40 -45 114 -45q32 0 46 2v-181q-43 -6 -87 -6q-54 0 -101.5 10.5t-94 37t-79.5 67.5t-53 107t-20 151q0 38 2 61q7 107 7 160q0 76 -9.5 127.5t-24 82t-43 47.5t-55.5 23t-73 9z " />
<glyph unicode="|" horiz-adv-x="487" d="M125 -25v1563h237v-1563h-237z" />
<glyph unicode="}" horiz-adv-x="737" d="M33 -57q16 -2 45 -2q75 0 115 45q38 41 38 137q0 35 -2 55q-4 106 -4 150q0 174 40 269t141 116q-69 15 -109.5 67t-56 128.5t-15.5 191.5q0 43 4 149q2 20 2 54q0 98 -38 139q-40 45 -115 45q-7 0 -22 -1t-23 -1v180q43 6 86 6q54 0 102 -10.5t94 -37.5t79 -68t53 -107 t20 -150q0 -41 -2 -61q-6 -91 -6 -160q0 -76 9 -128t24 -82t43 -47.5t56 -23t73 -8.5v-149q-46 -3 -73 -9t-55.5 -23t-43 -47.5t-24 -82t-9.5 -127.5q0 -68 6 -160q2 -23 2 -61q0 -85 -20 -151t-53 -107t-79.5 -67.5t-94 -37t-101.5 -10.5q-42 0 -86 6v181z" />
<glyph unicode="~" horiz-adv-x="968" d="M94 508v29q0 130 55 203t156 85h29q64 0 180 -41q114 -43 156 -43h8q26 3 38.5 27.5t12.5 56.5h143q2 -12 2 -34q0 -126 -55.5 -198.5t-156.5 -84.5q-5 0 -15.5 -1t-15.5 -1q-35 0 -76.5 9.5t-66 17.5t-82.5 30q-82 29 -105 29h-10q-23 -3 -38 -27.5t-15 -52.5v-2v-2 h-144z" />
<glyph />
<glyph unicode="&#xa1;" horiz-adv-x="782" d="M233 -449l48 1067h221l47 -1067h-316zM244 854q0 62 43 104.5t104 42.5q62 0 105 -43t43 -104t-43 -104t-105 -43q-61 0 -104 42.5t-43 104.5z" />
<glyph unicode="&#xa2;" horiz-adv-x="1132" d="M156 492q0 191 113.5 327.5t297.5 175.5v195h207v-184q120 -11 203 -64v-231q-106 86 -256 86q-127 0 -208 -83t-81 -222q0 -140 81 -224t208 -84q150 0 256 86v-231q-83 -53 -203 -64v-192h-207v203q-184 39 -297.5 176t-113.5 330z" />
<glyph unicode="&#xa3;" horiz-adv-x="1114" d="M104 0v133q63 34 108 84t67 104.5t31.5 98.5t11.5 88v35q0 35 -7 82h-204v198h172q-21 95 -21 199q0 124 62.5 225t170 158t236.5 57q195 0 295 -86l-33 -215q-84 78 -207 78q-102 0 -165 -57q-69 -66 -72 -170v-19q0 -73 22 -170h324v-198h-295q0 -7 1 -21.5t1 -21.5 q0 -88 -24 -170q-30 -116 -111 -199h563v-213h-926z" />
<glyph unicode="&#xa4;" horiz-adv-x="1445" d="M33 463v170h192q-4 27 -4 84v12h-188v170h207q52 259 246 412t487 153q202 0 358 -90l-78 -209q-122 82 -282 82q-169 0 -283 -94t-156 -254h668l-63 -170h-627v-12q0 -30 4 -84h586l-64 -170h-481q53 -130 158.5 -204.5t255.5 -74.5q211 0 358 95v-238 q-170 -74 -362 -74q-273 0 -458 133t-251 363h-223z" />
<glyph unicode="&#xa5;" horiz-adv-x="1392" d="M23 1432h370l289 -428q19 -27 37 -68q12 36 37 68l291 428h323l-440 -596h246v-181h-334v-86h334v-178h-334v-391h-291v391h-332v178h332v86h-332v181h244z" />
<glyph unicode="&#xa6;" horiz-adv-x="497" d="M141 -25v578h215v-578h-215zM141 958v578h215v-578h-215z" />
<glyph unicode="&#xa7;" horiz-adv-x="1062" d="M156 635q0 25 2 37q10 81 58.5 135.5t111.5 79.5q-133 81 -133 231v17q3 59 24 108.5t54 82.5t72 57.5t82.5 37.5t81 19t71.5 6q103 0 166 -21t114 -57v-199q-63 47 -124 72t-138 25q-68 0 -122 -32t-54 -95q0 -54 38.5 -87.5t110.5 -60.5l129 -47q41 -16 73 -34t71 -50 t61.5 -80.5t22.5 -109.5v-21q-7 -90 -56.5 -148.5t-113.5 -84.5q61 -32 96 -92.5t35 -143.5v-30q-7 -78 -48.5 -138.5t-102 -94t-123 -50.5t-121.5 -17q-168 0 -281 72v209q134 -100 270 -100q76 0 128.5 32t56.5 97v10q0 52 -40.5 83.5t-113.5 57.5l-135 47 q-223 81 -223 277zM365 668q0 -97 116 -138q40 -16 65.5 -25t31.5 -10l6 -1q55 6 90.5 39t42.5 73q4 20 4 29q0 95 -123 137l-102 37q-54 -6 -87.5 -39t-41.5 -76q-2 -8 -2 -26z" />
<glyph unicode="&#xa8;" horiz-adv-x="677" d="M33 1212q0 47 33.5 80t80.5 33t81 -33t34 -80q0 -49 -33.5 -82.5t-81.5 -33.5t-81 33.5t-33 82.5zM416 1212q0 47 33.5 80t80.5 33t81 -33t34 -80q0 -49 -33.5 -82.5t-81.5 -33.5t-81 33.5t-33 82.5z" />
<glyph unicode="&#xa9;" horiz-adv-x="1705" d="M94 715q0 152 60 290.5t162 238.5t242.5 159t295.5 59q154 0 294.5 -59t242 -159t161.5 -238.5t60 -290.5t-60 -290t-161.5 -238t-242 -159t-294.5 -59q-155 0 -295.5 59t-242.5 159t-162 238t-60 290zM250 715q0 -125 48 -239t128.5 -196.5t192.5 -131t235 -48.5 t235 48.5t192.5 131t128.5 196.5t48 239q0 168 -81 310t-220 224t-303 82t-303 -82t-220 -224t-81 -310zM420 731q0 195 131 320t338 125q158 0 262 -70v-178q-106 92 -258 92q-117 0 -194.5 -81.5t-77.5 -207.5t77.5 -208.5t194.5 -82.5q152 0 258 92v-178 q-104 -67 -262 -67q-207 0 -338 124t-131 320z" />
<glyph unicode="&#xaa;" horiz-adv-x="751" d="M53 903q0 174 215 238q45 13 146 33v12q0 106 -99 106q-129 0 -221 -102v170q40 40 109 65t139 25q131 0 201 -70q69 -66 69 -172v-327q0 -10 3.5 -17.5t7 -9.5t6.5 -2q4 -2 12 -2q30 0 57 18v-120q-67 -37 -137 -37h-4h-4q-50 0 -78 21t-37 48q-35 -35 -83.5 -52 t-92.5 -17q-83 0 -146 51t-63 141zM246 924q0 -29 18 -47q21 -21 60 -21h2h2q56 0 86 41v150q-168 -24 -168 -123z" />
<glyph unicode="&#xab;" horiz-adv-x="1175" d="M94 473l297 475h234l-267 -475l267 -473h-234zM510 473l297 475h233l-266 -475l266 -473h-233z" />
<glyph unicode="&#xac;" horiz-adv-x="1232" d="M94 610v221h1045v-641h-234v420h-811z" />
<glyph unicode="&#xad;" horiz-adv-x="763" d="M90 496v190h584v-190h-584z" />
<glyph unicode="&#xae;" horiz-adv-x="1353" d="M94 891q0 155 78 287t212.5 209t293.5 77q157 0 291 -77t212.5 -209t78.5 -287q0 -116 -46.5 -222t-124.5 -183.5t-186 -123t-225 -45.5q-159 0 -293.5 77.5t-212.5 209.5t-78 287zM213 891q0 -196 136.5 -334.5t328.5 -138.5t327.5 138.5t135.5 334.5q0 128 -62 237 t-168.5 172.5t-232.5 63.5t-233 -63.5t-169.5 -172.5t-62.5 -237zM455 575v652h202q99 0 156 -51t57 -140q0 -48 -27 -89t-71 -60q44 -29 88 -123l88 -189h-157l-60 136q-20 47 -37.5 76t-34 40.5t-26 14t-25.5 2.5h-12v-269h-141zM596 948h37q44 0 69 22.5t25 61.5 t-25 61.5t-69 22.5h-37v-168z" />
<glyph unicode="&#xaf;" horiz-adv-x="610" d="M33 1128v166h545v-166h-545z" />
<glyph unicode="&#xb0;" horiz-adv-x="870" d="M94 1126q0 138 101 234q102 94 239 94q141 0 241.5 -96.5t100.5 -231.5t-100.5 -231t-241.5 -96q-140 0 -240 96t-100 231zM250 1126q0 -76 54.5 -131t129.5 -55q77 0 132 55t55 131q0 78 -55.5 133.5t-133.5 55.5q-72 0 -127 -55q-55 -52 -55 -132v-2z" />
<glyph unicode="&#xb1;" horiz-adv-x="1206" d="M94 0v188h1018v-188h-1018zM94 682v188h404v420h211v-420h403v-188h-403v-401h-211v401h-404z" />
<glyph unicode="&#xb2;" horiz-adv-x="659" d="M61 641v70q214 204 277 309q52 81 55 160v4v2q0 55 -37 92q-33 33 -90 33q-106 0 -190 -84l-15 141q43 37 105.5 57.5t128.5 20.5q126 0 200 -69t74 -183q0 -97 -58.5 -196t-191.5 -228h273v-129h-531z" />
<glyph unicode="&#xb3;" horiz-adv-x="618" d="M61 672l13 143q77 -55 174 -55h2h4q56 2 89.5 31.5t33.5 80.5q0 48 -31 76q-39 39 -156 39h-2h-6h-12v125h6h2q120 0 162 39q25 25 25 63q0 43 -31.5 69t-83.5 26q-86 0 -154 -49l-16 135q84 51 201 51q113 0 182 -59t69 -156q0 -59 -28.5 -104t-81.5 -68 q61 -23 95 -71.5t34 -110.5q0 -109 -82 -180.5t-207 -71.5q-127 0 -201 47z" />
<glyph unicode="&#xb4;" horiz-adv-x="446" d="M33 1069l141 289h240l-236 -289h-145z" />
<glyph unicode="&#xb5;" horiz-adv-x="1193" d="M156 -354v1343l262 2v-614q0 -195 157 -195q61 0 115.5 37.5t85.5 93.5v678h262v-991h-245v125q-91 -145 -256 -145q-76 0 -121 38v-372h-260z" />
<glyph unicode="&#xb6;" horiz-adv-x="1052" d="M33 991q0 186 122 313.5t318 127.5h438v-1526h-184v1366h-139v-1366h-187v649q-168 24 -268 146t-100 290z" />
<glyph unicode="&#xb7;" horiz-adv-x="606" d="M156 725q0 61 43 104t104 43q62 0 105 -43t43 -104t-43 -104t-105 -43q-61 0 -104 43t-43 104z" />
<glyph unicode="&#xb8;" horiz-adv-x="393" d="M33 -223q48 -28 90 -31h4h2h2q27 0 48.5 11t21.5 32v2v2q0 41 -76 41q-35 0 -59 -8l73 217h144l-41 -115q43 -2 80.5 -33t37.5 -83v-2v-3q-1 -54 -24.5 -92.5t-59.5 -56t-66 -24.5t-58 -7q-63 0 -119 25v125z" />
<glyph unicode="&#xb9;" horiz-adv-x="514" d="M61 1233v125l271 76h55v-793h-170v635z" />
<glyph unicode="&#xba;" horiz-adv-x="899" d="M53 1075q0 160 113.5 267.5t282.5 107.5q172 0 284.5 -106t112.5 -269q0 -70 -26 -135.5t-75 -118.5t-126.5 -84.5t-172.5 -31.5q-167 0 -280 106t-113 264zM262 1075q0 -93 52.5 -152t134.5 -59q83 0 135.5 58.5t52.5 152.5q0 95 -52.5 154t-135.5 59q-82 0 -134.5 -59 t-52.5 -154z" />
<glyph unicode="&#xbb;" horiz-adv-x="1175" d="M135 0l266 473l-266 475h234l297 -475l-297 -473h-234zM551 0l266 473l-266 475h233l297 -475l-297 -473h-233z" />
<glyph unicode="&#xbc;" horiz-adv-x="1327" d="M61 1231v125l271 76h55v-793h-170v635zM113 0l856 1432h172l-858 -1432h-170zM651 217v96l355 480h143v-447h104v-129h-104v-217h-170v217h-328zM836 346h155v211z" />
<glyph unicode="&#xbd;" horiz-adv-x="1435" d="M61 1233v125l271 76h55v-795h-170v635zM113 0l856 1432h172l-858 -1432h-170zM819 0v70q69 67 102.5 100.5t90.5 98.5t84 110q53 87 53 160v4v2q0 58 -37 92q-30 33 -88 33q-106 0 -190 -84l-15 141q91 78 232 78q126 0 201 -69t75 -183q0 -96 -59 -195.5t-193 -228.5 h275v-129h-531z" />
<glyph unicode="&#xbe;" horiz-adv-x="1409" d="M61 670l13 143q77 -55 174 -55h2h4q56 2 89.5 31.5t33.5 80.5q0 48 -31 76q-39 39 -156 39h-2h-6h-12v125h6h2q120 0 162 39q25 25 25 63q0 43 -31.5 69t-83.5 26q-85 0 -154 -50l-16 136q84 51 201 51q113 0 182 -59t69 -156q0 -59 -28.5 -104t-81.5 -68q61 -23 95 -72 t34 -111q0 -109 -82 -180t-207 -71q-127 0 -201 47zM190 0l859 1432h170l-859 -1432h-170zM729 217v96l354 480h146v-447h104v-129h-104v-217h-170v217h-330zM915 346h154v211z" />
<glyph unicode="&#xbf;" horiz-adv-x="888" d="M84 -133q0 62 12.5 114t42 100.5t46 71t57.5 70.5q7 9 37.5 44t39.5 47.5t30.5 46t29 59.5t15 67t7.5 88q0 27 -2 41h224q4 -66 4 -96q0 -210 -129 -356q-71 -83 -98 -140t-27 -112q0 -19 2 -29q3 -54 46.5 -94.5t127.5 -40.5q129 0 233 94l23 -209q-72 -58 -151 -83 t-193 -25q-57 0 -109.5 11t-102 37t-85.5 64.5t-58 97.5t-22 132zM365 852q0 62 42.5 104.5t104.5 42.5t104.5 -42.5t42.5 -104.5t-42.5 -104.5t-104.5 -42.5t-104.5 42.5t-42.5 104.5z" />
<glyph unicode="&#xc0;" horiz-adv-x="1488" d="M20 0h279l133 342h574l141 -342h321l-608 1432h-252zM420 1798h239l142 -289h-146zM514 547l156 411q20 52 41 140q18 -82 41 -140l168 -411h-406z" />
<glyph unicode="&#xc1;" horiz-adv-x="1488" d="M20 0l588 1432h252l608 -1432h-321l-141 342h-574l-133 -342h-279zM514 547h406l-168 411q-23 58 -41 140q-21 -88 -41 -140zM668 1509l141 289h240l-236 -289h-145z" />
<glyph unicode="&#xc2;" horiz-adv-x="1488" d="M20 0l588 1432h252l608 -1432h-321l-141 342h-574l-133 -342h-279zM459 1534l209 299h137l213 -299h-148l-137 152l-129 -152h-145zM514 547h406l-168 411q-23 58 -41 140q-21 -88 -41 -140z" />
<glyph unicode="&#xc3;" horiz-adv-x="1488" d="M20 0l588 1432h252l608 -1432h-321l-141 342h-574l-133 -342h-279zM457 1544q0 94 40 146.5t113 60.5q3 0 10.5 1t10.5 1q41 0 129 -35q88 -37 112 -37h7q46 6 36 70h105v-27q0 -91 -40 -141.5t-112 -58.5q-8 -2 -24 -2q-15 0 -29 2t-31.5 7.5t-27.5 9t-33.5 13 t-32.5 13.5q-67 26 -84 26h-8q-21 0 -30.5 -20t-6.5 -49h1h1h1h1h1h1h-1h-1h-1h-1h-1h-1h-1h-1h-1h-1h-1h-1h-1h-1h-1h-1h-1h-1h-1h-1h-2h-1h-1h-1h-1h-1h-1h-2h-1h-1h-1h-2h-1h-1h-2h-1h-1h-2h-1h-1h-2h-1h-2h-1h-2h-1h-2h-1h-2h-1h-2h-1h-2h-2h-1h-2h-1h-2h-2h-1h-2h-2h-1 h-2h-2h-2h-1h-2h-2h-2h-1h-2h-2h-9q-2 6 -2 20zM514 547h406l-168 411q-23 58 -41 140q-21 -88 -41 -140z" />
<glyph unicode="&#xc4;" horiz-adv-x="1488" d="M20 0l588 1432h252l608 -1432h-321l-141 342h-574l-133 -342h-279zM424 1626q0 47 34 81t81 34t79.5 -33.5t32.5 -81.5q0 -49 -32.5 -82t-79.5 -33t-81 34t-34 81zM514 547h406l-168 411q-23 58 -41 140q-21 -88 -41 -140zM807 1626q0 47 34 81t81 34t80.5 -34t33.5 -81 q0 -49 -33 -82t-81 -33q-47 0 -81 34t-34 81z" />
<glyph unicode="&#xc5;" horiz-adv-x="1488" d="M20 0l588 1432h252l608 -1432h-321l-141 342h-574l-133 -342h-279zM514 547h406l-168 411q-23 58 -41 140q-21 -88 -41 -140zM557 1657q0 70 53 121t127 51t127.5 -51t53.5 -121q0 -72 -53.5 -122t-127.5 -50t-127 50t-53 122zM664 1657q0 -31 21.5 -53.5t51.5 -22.5 q31 0 52.5 22.5t21.5 53.5t-21.5 52.5t-52.5 21.5t-52 -21.5t-21 -52.5z" />
<glyph unicode="&#xc6;" horiz-adv-x="1964" d="M16 0l897 1432h942v-220h-591v-381h573v-210h-573v-402h610v-219h-899v365h-451l-219 -365h-289zM647 565h328v588q-5 -18 -15 -42t-18 -39.5t-20 -37.5t-13 -24z" />
<glyph unicode="&#xc7;" horiz-adv-x="1437" d="M98 719q0 216 103.5 386.5t289 265.5t420.5 95q281 0 459 -114v-277q-105 87 -212.5 125.5t-246.5 38.5q-220 0 -358.5 -148t-138.5 -372q0 -225 138.5 -373.5t358.5 -148.5q139 0 247 38.5t212 124.5v-276q-163 -104 -407 -113l-29 -77q42 0 80.5 -31.5t38.5 -85.5v-2 v-2q-1 -53 -24.5 -91.5t-59.5 -56.5t-67 -25.5t-58 -7.5q-63 0 -119 25v127q48 -31 90 -31h4h4q27 0 48.5 10.5t21.5 30.5v4q0 41 -76 41q-32 0 -59 -6l61 180q-158 14 -292 74.5t-228.5 157.5t-147.5 229.5t-53 284.5z" />
<glyph unicode="&#xc8;" horiz-adv-x="1161" d="M166 0h901v219h-612v402h573v210h-573v381h594v220h-883v-1432zM311 1798h240l141 -289h-145z" />
<glyph unicode="&#xc9;" horiz-adv-x="1161" d="M166 0v1432h883v-220h-594v-381h573v-210h-573v-402h612v-219h-901zM524 1509l142 289h237l-235 -289h-144z" />
<glyph unicode="&#xca;" horiz-adv-x="1161" d="M166 0v1432h883v-220h-594v-381h573v-210h-573v-402h612v-219h-901zM340 1534l209 299h135l215 -299h-147l-138 152l-129 -152h-145z" />
<glyph unicode="&#xcb;" horiz-adv-x="1161" d="M166 0v1432h883v-220h-594v-381h573v-210h-573v-402h612v-219h-901zM291 1626q0 47 34 81t81 34t79.5 -33.5t32.5 -81.5q0 -49 -32.5 -82t-79.5 -33t-81 34t-34 81zM674 1626q0 47 33.5 81t80.5 34t81 -34t34 -81q0 -49 -33.5 -82t-81.5 -33q-47 0 -80.5 34t-33.5 81z " />
<glyph unicode="&#xcc;" horiz-adv-x="620" d="M14 1798h240l141 -289h-145zM166 0h289v1432h-289v-1432z" />
<glyph unicode="&#xcd;" horiz-adv-x="620" d="M166 0v1432h289v-1432h-289zM250 1509l141 289h240l-236 -289h-145z" />
<glyph unicode="&#xce;" horiz-adv-x="620" d="M31 1534l209 299h137l213 -299h-148l-137 152l-129 -152h-145zM166 0v1432h289v-1432h-289z" />
<glyph unicode="&#xcf;" horiz-adv-x="620" d="M4 1626q0 47 34 81t81 34t80.5 -34t33.5 -81q0 -49 -33 -82t-81 -33q-47 0 -81 34t-34 81zM166 0v1432h289v-1432h-289zM387 1626q0 48 34 81.5t83 33.5q46 0 79 -34t33 -81q0 -49 -33 -82t-79 -33q-49 0 -83 33.5t-34 81.5z" />
<glyph unicode="&#xd0;" horiz-adv-x="1570" d="M23 606v197h151v629h522q150 0 278 -41.5t217.5 -111.5t152.5 -163t92.5 -194.5t29.5 -206.5q0 -106 -29.5 -207.5t-92.5 -193.5t-152.5 -162t-217.5 -111t-278 -41h-522v606h-151zM463 221h166q112 0 203 29.5t149 78t96.5 114t55 133t16.5 139.5t-16.5 140t-55 133.5 t-96.5 114.5t-149 79t-203 30h-166v-409h317v-197h-317v-385z" />
<glyph unicode="&#xd1;" horiz-adv-x="1648" d="M166 0v1432h264l776 -943v943h277v-1432h-250l-791 967v-967h-276zM547 1544q0 94 40 146.5t113 60.5q3 0 10.5 1t10.5 1q41 0 129 -35q88 -37 113 -37h6q23 3 32.5 22t4.5 48h104v-27q0 -91 -40 -141.5t-112 -58.5q-8 -2 -24 -2q-18 0 -39 4.5t-32.5 8.5t-41.5 16 t-41 16q-67 26 -84 26h-8q-21 0 -30.5 -20t-6.5 -49h1h1h1h1h1h1h-1h-1h-1h-1h-1h-1h-1h-1h-1h-1h-1h-1h-1h-1h-1h-1h-1h-1h-1h-1h-2h-1h-1h-1h-1h-1h-1h-2h-1h-1h-1h-2h-1h-1h-2h-1h-1h-2h-1h-1h-2h-1h-2h-1h-2h-1h-2h-1h-2h-1h-2h-1h-2h-2h-1h-2h-1h-2h-2h-1h-2h-2h-1h-2 h-2h-2h-1h-2h-2h-2h-1h-2h-2h-9q0 3 -1 10t-1 10z" />
<glyph unicode="&#xd2;" horiz-adv-x="1800" d="M98 717q0 -158 60 -296.5t164.5 -238.5t253 -157.5t319.5 -57.5q157 0 290.5 42t227 114.5t160 168.5t98 204t31.5 221q0 215 -101.5 385t-285 266t-416.5 96q-172 0 -321.5 -57t-254.5 -156.5t-165 -237.5t-60 -296zM414 717q0 229 136.5 377.5t348.5 148.5 q213 0 350 -148.5t137 -377.5t-137 -378t-350 -149q-209 0 -347 150.5t-138 376.5zM590 1798h239l142 -289h-146z" />
<glyph unicode="&#xd3;" horiz-adv-x="1800" d="M98 717q0 158 60 296t165 237.5t254.5 156.5t321.5 57q233 0 416.5 -96t285 -266t101.5 -385q0 -113 -31.5 -221t-98 -204t-160 -168.5t-227 -114.5t-290.5 -42q-171 0 -319.5 57.5t-253 157.5t-164.5 238.5t-60 296.5zM414 717q0 -226 138 -376.5t347 -150.5 q213 0 350 149t137 378t-137 377.5t-350 148.5q-212 0 -348.5 -148.5t-136.5 -377.5zM823 1505l142 293h239l-235 -293h-146z" />
<glyph unicode="&#xd4;" horiz-adv-x="1800" d="M98 717q0 158 60 296t165 237.5t254.5 156.5t321.5 57q233 0 416.5 -96t285 -266t101.5 -385q0 -113 -31.5 -221t-98 -204t-160 -168.5t-227 -114.5t-290.5 -42q-171 0 -319.5 57.5t-253 157.5t-164.5 238.5t-60 296.5zM414 717q0 -226 138 -376.5t347 -150.5 q213 0 350 149t137 378t-137 377.5t-350 148.5q-212 0 -348.5 -148.5t-136.5 -377.5zM618 1534l209 299h136l215 -299h-148l-137 152l-129 -152h-146z" />
<glyph unicode="&#xd5;" horiz-adv-x="1800" d="M98 717q0 158 60 296t165 237.5t254.5 156.5t321.5 57q233 0 416.5 -96t285 -266t101.5 -385q0 -113 -31.5 -221t-98 -204t-160 -168.5t-227 -114.5t-290.5 -42q-171 0 -319.5 57.5t-253 157.5t-164.5 238.5t-60 296.5zM414 717q0 -226 138 -376.5t347 -150.5 q213 0 350 149t137 378t-137 377.5t-350 148.5q-212 0 -348.5 -148.5t-136.5 -377.5zM639 1524v22q0 93 39.5 145t112.5 60q4 0 10.5 1t9.5 1q39 0 131 -35q84 -37 111 -37h6q46 6 39 70h102v-27q0 -90 -40 -141t-111 -59q-8 -2 -25 -2q-18 0 -39 4.5t-32.5 8.5t-41.5 16 t-41 16q-67 26 -84 26h-6q-22 0 -32 -20t-7 -49h1h1h1h1h1h1h-1h-1h-1h-1h-1h-1h-1h-1h-1h-1h-1h-1h-1h-1h-1h-1h-1h-1h-1h-1h-2h-1h-1h-1h-1h-1h-1h-2h-1h-1h-1h-2h-1h-1h-2h-1h-1h-2h-1h-1h-2h-1h-2h-1h-2h-1h-2h-1h-2h-1h-2h-1h-2h-2h-1h-2h-1h-2h-2h-1h-2h-2h-1h-2h-2 h-2h-1h-2h-2h-2h-1h-2h-2h-9z" />
<glyph unicode="&#xd6;" horiz-adv-x="1800" d="M98 717q0 158 60 296t165 237.5t254.5 156.5t321.5 57q233 0 416.5 -96t285 -266t101.5 -385q0 -113 -31.5 -221t-98 -204t-160 -168.5t-227 -114.5t-290.5 -42q-171 0 -319.5 57.5t-253 157.5t-164.5 238.5t-60 296.5zM414 717q0 -226 138 -376.5t347 -150.5 q213 0 350 149t137 378t-137 377.5t-350 148.5q-212 0 -348.5 -148.5t-136.5 -377.5zM588 1626q0 48 32.5 81.5t81.5 33.5q47 0 80 -34t33 -81q0 -49 -32.5 -82t-80.5 -33q-47 0 -80.5 34t-33.5 81zM971 1626q0 48 32.5 81.5t81.5 33.5q47 0 80 -34t33 -81q0 -49 -32.5 -82 t-80.5 -33q-47 0 -80.5 34t-33.5 81z" />
<glyph unicode="&#xd7;" horiz-adv-x="1153" d="M94 172l346 346l-346 346l135 135l346 -346l347 346l137 -135l-346 -346l346 -346l-137 -137l-347 346l-346 -346z" />
<glyph unicode="&#xd8;" horiz-adv-x="1759" d="M78 717q0 158 60 296t165 237.5t254.5 156.5t321.5 57q241 0 428 -102l114 135l142 -119l-107 -125q108 -101 166.5 -238t58.5 -298q0 -113 -31.5 -221t-98 -204t-160 -168.5t-227 -114.5t-290.5 -42q-222 0 -413 101l-117 -138l-139 119l104 127q-110 101 -170.5 240.5 t-60.5 300.5zM393 717q0 -188 99 -326l649 774q-115 76 -262 76q-212 0 -349 -148t-137 -376zM625 262q118 -72 254 -72q213 0 350 149t137 378q0 183 -92 317z" />
<glyph unicode="&#xd9;" horiz-adv-x="1552" d="M166 575q0 -156 44.5 -273.5t126 -190t192 -108.5t247.5 -36q138 0 248.5 36t192 108.5t125.5 190t44 273.5v857h-282v-879q0 -165 -82.5 -257.5t-243.5 -92.5q-159 0 -241 92.5t-82 257.5v879h-289v-857zM489 1798h240l139 -289h-143z" />
<glyph unicode="&#xda;" horiz-adv-x="1552" d="M166 575v857h289v-879q0 -165 82 -257.5t241 -92.5q161 0 243.5 92.5t82.5 257.5v879h282v-857q0 -156 -44 -273.5t-125.5 -190t-192 -108.5t-248.5 -36q-137 0 -247.5 36t-192 108.5t-126 190t-44.5 273.5zM709 1509l141 289h240l-236 -289h-145z" />
<glyph unicode="&#xdb;" horiz-adv-x="1552" d="M166 575v857h289v-879q0 -165 82 -257.5t241 -92.5q161 0 243.5 92.5t82.5 257.5v879h282v-857q0 -156 -44 -273.5t-125.5 -190t-192 -108.5t-248.5 -36q-137 0 -247.5 36t-192 108.5t-126 190t-44.5 273.5zM506 1534l209 299h135l215 -299h-150l-135 152l-131 -152h-143 z" />
<glyph unicode="&#xdc;" horiz-adv-x="1552" d="M166 575v857h289v-879q0 -165 82 -257.5t241 -92.5q161 0 243.5 92.5t82.5 257.5v879h282v-857q0 -156 -44 -273.5t-125.5 -190t-192 -108.5t-248.5 -36q-137 0 -247.5 36t-192 108.5t-126 190t-44.5 273.5zM479 1626q0 47 34 81t81 34t81 -34t34 -81q0 -49 -33.5 -82 t-81.5 -33q-47 0 -81 34t-34 81zM862 1626q0 48 34 81.5t83 33.5q46 0 79.5 -34t33.5 -81q0 -49 -33.5 -82t-79.5 -33q-47 0 -82 34t-35 81z" />
<glyph unicode="&#xdd;" horiz-adv-x="1337" d="M18 1432h340l287 -443q20 -33 37 -71q7 21 37 71l285 443h315l-514 -746v-686h-289v682zM614 1509l142 289h239l-237 -289h-144z" />
<glyph unicode="&#xde;" horiz-adv-x="1214" d="M147 0v1430h289v-228h172q229 0 368.5 -111t139.5 -325q0 -213 -140 -324.5t-368 -111.5h-172v-330h-289zM436 539h127q120 0 185 60t65 163q0 104 -65 163.5t-185 59.5h-127v-446z" />
<glyph unicode="&#xdf;" horiz-adv-x="1230" d="M166 0v1044q0 177 130.5 291.5t330.5 114.5q202 0 324 -103t122 -274q0 -100 -47.5 -176.5t-130.5 -110.5q252 -83 252 -364q0 -190 -127 -314t-326 -124q-105 0 -176 26v209q56 -26 131 -26q100 0 161.5 64.5t61.5 170.5q0 118 -71 180q-73 64 -217 64q-31 0 -47 -2v202 h30q122 0 178 50q56 47 56 139q0 85 -47.5 135.5t-128.5 50.5q-96 0 -148.5 -56t-52.5 -161v-1030h-258z" />
<glyph unicode="&#xe0;" horiz-adv-x="1048" d="M88 246q0 239 315 327q80 24 207 45v29q0 156 -145 156q-159 0 -315 -119v217q62 54 154.5 82.5t197.5 28.5q182 0 276 -94t94 -242v-461q0 -46 33 -51q32 -8 86 24v-157q-93 -51 -188 -51q-65 0 -107 29.5t-57 74.5q-45 -51 -112.5 -77.5t-133.5 -26.5q-127 0 -216 71 t-89 195zM195 1358h239l141 -289h-145zM338 276q0 -51 37.5 -80.5t101.5 -29.5q81 0 131 65v232q-135 -19 -202.5 -64t-67.5 -123z" />
<glyph unicode="&#xe1;" horiz-adv-x="1048" d="M88 246q0 239 315 327q80 24 207 45v29q0 156 -145 156q-159 0 -315 -119v217q62 54 154.5 82.5t197.5 28.5q182 0 276 -94t94 -242v-461q0 -46 33 -51q32 -8 86 24v-157q-93 -51 -188 -51q-65 0 -107 29.5t-57 74.5q-45 -51 -112.5 -77.5t-133.5 -26.5q-127 0 -216 71 t-89 195zM338 276q0 -51 37.5 -80.5t101.5 -29.5q81 0 131 65v232q-135 -19 -202.5 -64t-67.5 -123zM428 1069l141 289h240l-236 -289h-145z" />
<glyph unicode="&#xe2;" horiz-adv-x="1048" d="M88 246q0 239 315 327q80 24 207 45v29q0 156 -145 156q-159 0 -315 -119v217q62 54 154.5 82.5t197.5 28.5q182 0 276 -94t94 -242v-461q0 -46 33 -51q32 -8 86 24v-157q-93 -51 -188 -51q-65 0 -107 29.5t-57 74.5q-45 -51 -112.5 -77.5t-133.5 -26.5q-127 0 -216 71 t-89 195zM242 1075l209 299h137l213 -299h-148l-137 152l-129 -152h-145zM338 276q0 -51 37.5 -80.5t101.5 -29.5q81 0 131 65v232q-135 -19 -202.5 -64t-67.5 -123z" />
<glyph unicode="&#xe3;" horiz-adv-x="1048" d="M88 246q0 239 315 327q80 24 207 45v29q0 156 -145 156q-159 0 -315 -119v217q62 54 154.5 82.5t197.5 28.5q182 0 276 -94t94 -242v-461q0 -46 33 -51q32 -8 86 24v-157q-93 -51 -188 -51q-65 0 -107 29.5t-57 74.5q-45 -51 -112.5 -77.5t-133.5 -26.5q-127 0 -216 71 t-89 195zM221 1112q0 92 40.5 144.5t113.5 60.5q6 2 20 2q42 0 129 -35q88 -37 113 -37h6q23 3 32.5 22t4.5 48h104v-27q0 -91 -39.5 -141.5t-111.5 -58.5q-12 -3 -25 -3q-18 0 -39 5t-32.5 9t-41.5 16l-40 16q-67 26 -84 26h-9q-21 0 -30 -20t-6 -49h1h1h1h1h1h1h-1h-1h-1 h-1h-1h-1h-1h-1h-1h-1h-1h-1h-1h-1h-1h-1h-1h-1h-1h-1h-1h-2h-1h-1h-1h-1h-1h-1h-2h-1h-1h-1h-2h-1h-1h-2h-1h-1h-2h-1h-2h-1h-1h-2h-1h-2h-1h-2h-1h-2h-1h-2h-2h-1h-2h-1h-2h-2h-1h-2h-2h-1h-2h-2h-1h-2h-2h-2h-1h-2h-2h-2h-1h-2h-9q-2 8 -2 22zM338 276q0 -51 37.5 -80.5 t101.5 -29.5q81 0 131 65v232q-135 -19 -202.5 -64t-67.5 -123z" />
<glyph unicode="&#xe4;" horiz-adv-x="1048" d="M88 246q0 239 315 327q80 24 207 45v29q0 156 -145 156q-159 0 -315 -119v217q62 54 154.5 82.5t197.5 28.5q182 0 276 -94t94 -242v-461q0 -46 33 -51q32 -8 86 24v-157q-93 -51 -188 -51q-65 0 -107 29.5t-57 74.5q-45 -51 -112.5 -77.5t-133.5 -26.5q-127 0 -216 71 t-89 195zM201 1212q0 48 32.5 80.5t81.5 32.5q47 0 80 -33t33 -80q0 -49 -33 -82.5t-80 -33.5q-48 0 -81 33.5t-33 82.5zM338 276q0 -51 37.5 -80.5t101.5 -29.5q81 0 131 65v232q-135 -19 -202.5 -64t-67.5 -123zM584 1212q0 47 33.5 80t80.5 33t80 -33t33 -80 q0 -49 -33 -82.5t-80 -33.5q-48 0 -81 33.5t-33 82.5z" />
<glyph unicode="&#xe5;" horiz-adv-x="1048" d="M88 246q0 239 315 327q80 24 207 45v29q0 156 -145 156q-159 0 -315 -119v217q62 54 154.5 82.5t197.5 28.5q182 0 276 -94t94 -242v-461q0 -46 33 -51q32 -8 86 24v-157q-93 -51 -188 -51q-65 0 -107 29.5t-57 74.5q-45 -51 -112.5 -77.5t-133.5 -26.5q-127 0 -216 71 t-89 195zM317 1241q0 70 53.5 121t127.5 51t127 -51t53 -121q0 -72 -53 -123t-127 -51t-127.5 51t-53.5 123zM338 276q0 -51 37.5 -80.5t101.5 -29.5q81 0 131 65v232q-135 -19 -202.5 -64t-67.5 -123zM424 1241q0 -31 21.5 -53.5t52.5 -22.5q30 0 51.5 22.5t21.5 53.5 t-21 52.5t-52 21.5t-52.5 -21.5t-21.5 -52.5z" />
<glyph unicode="&#xe6;" horiz-adv-x="1560" d="M84 240q0 239 293 329q102 28 207 45v27q0 77 -37 117.5t-109 40.5q-171 0 -299 -125v223q129 109 324 109q106 0 173.5 -25t111.5 -86q107 121 296 121q198 0 314 -119q129 -132 129 -383q0 -47 -2 -72h-649q7 -107 73 -176t168 -78q18 -2 51 -2q146 0 283 90l43 -186 q-166 -113 -377 -113q-243 0 -375 150q-136 -152 -335 -152q-115 0 -199 71t-84 194zM336 270q0 -47 33 -75.5t88 -28.5q43 0 87 25t74 71q-28 82 -34 191q-248 -32 -248 -183zM842 618h397q-15 203 -192 203q-78 0 -134.5 -52t-70.5 -151z" />
<glyph unicode="&#xe7;" horiz-adv-x="972" d="M78 498q0 112 41.5 208.5t113 164.5t171.5 106.5t214 38.5q175 0 281 -68v-231q-102 86 -256 86q-127 0 -208 -82.5t-81 -222.5t81 -224t208 -84q150 0 256 86v-231q-93 -59 -235 -65l-19 -50q44 -2 81.5 -32t37.5 -84v-2v-2q-1 -53 -24 -91.5t-59 -56.5t-67 -25.5 t-59 -7.5q-63 0 -119 25v127q48 -31 90 -31h4h5q28 0 48.5 10t20.5 31v2v2q0 41 -76 41q-32 0 -59 -6l53 156q-196 31 -320 171.5t-124 340.5z" />
<glyph unicode="&#xe8;" horiz-adv-x="1095" d="M78 496q0 223 139 371.5t348 148.5q202 0 320 -121q133 -133 133 -381q0 -20 -4 -74h-664q9 -112 76 -179.5t172 -76.5q18 -2 53 -2q161 0 289 92l43 -186q-170 -113 -385 -113q-236 0 -378 145.5t-142 375.5zM254 1358h240l141 -289h-146zM358 616h404q-5 92 -52 148.5 t-145 56.5q-80 0 -136 -53t-71 -152z" />
<glyph unicode="&#xe9;" horiz-adv-x="1095" d="M78 496q0 223 139 371.5t348 148.5q202 0 320 -121q133 -133 133 -381q0 -20 -4 -74h-664q9 -112 76 -179.5t172 -76.5q18 -2 53 -2q161 0 289 92l43 -186q-170 -113 -385 -113q-236 0 -378 145.5t-142 375.5zM358 616h404q-5 92 -52 148.5t-145 56.5q-80 0 -136 -53 t-71 -152zM489 1069l142 289h239l-235 -289h-146z" />
<glyph unicode="&#xea;" horiz-adv-x="1095" d="M78 496q0 223 139 371.5t348 148.5q202 0 320 -121q133 -133 133 -381q0 -20 -4 -74h-664q9 -112 76 -179.5t172 -76.5q18 -2 53 -2q161 0 289 92l43 -186q-170 -113 -385 -113q-236 0 -378 145.5t-142 375.5zM287 1075l209 299h137l213 -299h-148l-137 152l-129 -152 h-145zM358 616h404q-5 92 -52 148.5t-145 56.5q-80 0 -136 -53t-71 -152z" />
<glyph unicode="&#xeb;" horiz-adv-x="1095" d="M78 496q0 223 139 371.5t348 148.5q202 0 320 -121q133 -133 133 -381q0 -20 -4 -74h-664q9 -112 76 -179.5t172 -76.5q18 -2 53 -2q161 0 289 92l43 -186q-170 -113 -385 -113q-236 0 -378 145.5t-142 375.5zM258 1212q0 48 33 80.5t82 32.5q47 0 79.5 -33t32.5 -80 q0 -49 -32.5 -82.5t-79.5 -33.5q-48 0 -81.5 33.5t-33.5 82.5zM358 616h404q-5 92 -52 148.5t-145 56.5q-80 0 -136 -53t-71 -152zM641 1212q0 47 34 80t81 33t79.5 -33t32.5 -80q0 -49 -32.5 -82.5t-79.5 -33.5q-48 0 -81.5 33.5t-33.5 82.5z" />
<glyph unicode="&#xec;" horiz-adv-x="581" d="M-10 1358h239l142 -289h-146zM160 0v989h262v-989h-262z" />
<glyph unicode="&#xed;" horiz-adv-x="581" d="M160 0v989h262v-989h-262zM217 1069l141 289h240l-238 -289h-143z" />
<glyph unicode="&#xee;" horiz-adv-x="581" d="M10 1075l209 299h137l213 -299h-147l-137 152l-129 -152h-146zM160 0v989h262v-989h-262z" />
<glyph unicode="&#xef;" horiz-adv-x="581" d="M-12 1212q0 47 33.5 80t80.5 33t80 -33t33 -80q0 -49 -33 -82.5t-80 -33.5q-48 0 -81 33.5t-33 82.5zM160 0v989h262v-989h-262zM371 1212q0 47 33.5 80t80.5 33t81 -33t34 -80q0 -49 -33.5 -82.5t-81.5 -33.5t-81 33.5t-33 82.5z" />
<glyph unicode="&#xf0;" horiz-adv-x="1236" d="M74 471q0 211 151.5 352.5t378.5 141.5q88 0 171.5 -37.5t131.5 -104.5q-44 201 -207 314l-225 -136l-125 136l154 94q-109 34 -256 43l129 186q219 -15 364 -88l154 92l125 -137l-115 -67q76 -73 139 -168q119 -180 119 -437q0 -207 -73 -366q-68 -144 -190 -229 t-298 -85q-226 0 -377 142t-151 354zM350 471q0 -128 71.5 -209.5t182.5 -81.5q113 0 184.5 81t71.5 210q0 127 -71.5 208t-184.5 81q-111 0 -182.5 -81t-71.5 -208z" />
<glyph unicode="&#xf1;" horiz-adv-x="1216" d="M160 0v989h246v-117q106 140 303 140q56 0 105.5 -12.5t94.5 -41.5t77.5 -72.5t51.5 -109.5t19 -149v-627h-262v627q0 31 -6.5 59t-22.5 57t-49.5 46.5t-81.5 17.5q-62 0 -120.5 -36t-92.5 -101v-670h-262zM309 1090v22q0 92 40 144.5t112 60.5q8 2 22 2q37 0 129 -35 q88 -37 111 -37h6q49 6 39 70h102q0 -4 1 -13.5t1 -13.5q0 -90 -40.5 -141t-112.5 -59q-12 -3 -23 -3q-19 0 -39.5 4.5t-33 9t-41 16.5t-39.5 16q-71 26 -84 26h-8q-21 0 -30.5 -20t-6.5 -49h1h1h1h1h1h-1h-1h-1h-1h-1h-1h-1h-1h-1h-1h-1h-1h-1h-1h-1h-1h-1h-1h-1h-1h-1h-1 h-2h-1h-1h-1h-1h-1h-2h-1h-1h-1h-2h-1h-1h-2h-1h-1h-2h-1h-2h-1h-1h-2h-1h-2h-1h-2h-1h-2h-1h-2h-1h-2h-2h-1h-2h-1h-2h-2h-1h-2h-2h-1h-2h-2h-2h-1h-2h-2h-2h-1h-2h-2h-2h-8z" />
<glyph unicode="&#xf2;" horiz-adv-x="1239" d="M78 496q0 146 70.5 265.5t194.5 187t275 67.5q236 0 389.5 -147t153.5 -373q0 -99 -35.5 -191t-102 -166t-172.5 -119t-235 -45q-230 0 -384 149t-154 372zM307 1358h240l141 -289h-145zM354 496q0 -136 74 -222t190 -86q118 0 193.5 86t75.5 222t-75.5 221.5 t-193.5 85.5q-116 0 -190 -85.5t-74 -221.5z" />
<glyph unicode="&#xf3;" horiz-adv-x="1239" d="M78 496q0 146 70.5 265.5t194.5 187t275 67.5q236 0 389.5 -147t153.5 -373q0 -99 -35.5 -191t-102 -166t-172.5 -119t-235 -45q-230 0 -384 149t-154 372zM354 496q0 -136 74 -222t190 -86q118 0 193.5 86t75.5 222t-75.5 221.5t-193.5 85.5q-116 0 -190 -85.5 t-74 -221.5zM543 1069l141 289h240l-236 -289h-145z" />
<glyph unicode="&#xf4;" horiz-adv-x="1239" d="M78 496q0 146 70.5 265.5t194.5 187t275 67.5q236 0 389.5 -147t153.5 -373q0 -99 -35.5 -191t-102 -166t-172.5 -119t-235 -45q-230 0 -384 149t-154 372zM336 1075l209 299h135l215 -299h-150l-135 152l-129 -152h-145zM354 496q0 -136 74 -222t190 -86q118 0 193.5 86 t75.5 222t-75.5 221.5t-193.5 85.5q-116 0 -190 -85.5t-74 -221.5z" />
<glyph unicode="&#xf5;" horiz-adv-x="1239" d="M78 496q0 146 70.5 265.5t194.5 187t275 67.5q236 0 389.5 -147t153.5 -373q0 -99 -35.5 -191t-102 -166t-172.5 -119t-235 -45q-230 0 -384 149t-154 372zM324 1090v22q0 92 39.5 144.5t111.5 60.5q8 2 23 2q13 0 26 -2t30 -7t23.5 -7t28.5 -11l21 -8q88 -37 110 -37h6 q49 6 39 70h103q0 -4 1 -13.5t1 -13.5q0 -90 -41 -141t-113 -59q-12 -3 -22 -3q-19 0 -40 4.5t-33 9t-41.5 16.5t-39.5 16q-72 26 -84 26h-8q-21 0 -31 -19.5t-8 -49.5h1h1h1h1h1h1h-1h-1h-1h-1h-1h-1h-1h-1h-1h-1h-1h-1h-1h-1h-1h-1h-1h-1h-1h-1h-2h-1h-1h-1h-1h-1h-1h-2 h-1h-1h-1h-2h-1h-1h-2h-1h-1h-2h-1h-1h-2h-1h-2h-1h-2h-1h-2h-1h-2h-1h-2h-1h-2h-2h-1h-2h-1h-2h-2h-1h-2h-2h-1h-2h-2h-2h-1h-2h-2h-2h-1h-2h-2h-9zM354 496q0 -136 74 -222t190 -86q118 0 193.5 86t75.5 222t-75.5 221.5t-193.5 85.5q-116 0 -190 -85.5t-74 -221.5z" />
<glyph unicode="&#xf6;" horiz-adv-x="1239" d="M78 496q0 146 70.5 265.5t194.5 187t275 67.5q236 0 389.5 -147t153.5 -373q0 -99 -35.5 -191t-102 -166t-172.5 -119t-235 -45q-230 0 -384 149t-154 372zM285 1212q0 47 33.5 80t80.5 33t80 -33t33 -80q0 -49 -33 -82.5t-80 -33.5q-48 0 -81 33.5t-33 82.5zM354 496 q0 -136 74 -222t190 -86q118 0 193.5 86t75.5 222t-75.5 221.5t-193.5 85.5q-116 0 -190 -85.5t-74 -221.5zM668 1212q0 47 33.5 80t80.5 33t81 -33t34 -80q0 -49 -33.5 -82.5t-81.5 -33.5t-81 33.5t-33 82.5z" />
<glyph unicode="&#xf7;" horiz-adv-x="1181" d="M94 420v188h993v-188h-993zM442 168q0 61 43 104t105 43t104.5 -42.5t42.5 -104.5t-43 -105t-104 -43q-62 0 -105 43t-43 105zM442 860q0 60 43.5 104t104.5 44t104 -44t43 -104q0 -62 -43 -105.5t-104 -43.5t-104.5 43.5t-43.5 105.5z" />
<glyph unicode="&#xf8;" horiz-adv-x="1243" d="M80 498q0 221 155.5 370.5t385.5 149.5q149 0 276 -68l96 117l121 -102l-90 -111q139 -142 139 -356q0 -99 -35.5 -191.5t-102 -166.5t-172 -118.5t-235.5 -44.5q-148 0 -268 66l-104 -127l-123 104l98 119q-141 147 -141 359zM356 498q0 -84 33 -158l359 432 q-61 33 -127 33q-116 0 -190.5 -86t-74.5 -221zM498 221q57 -31 123 -31q117 0 192.5 86t75.5 222q0 82 -33 153z" />
<glyph unicode="&#xf9;" horiz-adv-x="1202" d="M160 395v594h262v-612q0 -197 158 -197q61 0 115 37.5t85 93.5v678h262v-989h-245v123q-118 -146 -301 -146q-336 0 -336 418zM295 1358h240l141 -289h-146z" />
<glyph unicode="&#xfa;" horiz-adv-x="1202" d="M160 395v594h262v-612q0 -197 158 -197q61 0 115 37.5t85 93.5v678h262v-989h-245v123q-118 -146 -301 -146q-336 0 -336 418zM524 1069l142 289h239l-235 -289h-146z" />
<glyph unicode="&#xfb;" horiz-adv-x="1202" d="M160 395v594h262v-612q0 -197 158 -197q61 0 115 37.5t85 93.5v678h262v-989h-245v123q-118 -146 -301 -146q-336 0 -336 418zM317 1075l209 299h136l215 -299h-148l-137 152l-129 -152h-146z" />
<glyph unicode="&#xfc;" horiz-adv-x="1202" d="M160 395v594h262v-612q0 -197 158 -197q61 0 115 37.5t85 93.5v678h262v-989h-245v123q-118 -146 -301 -146q-336 0 -336 418zM295 1212q0 47 34 80t81 33t80.5 -33t33.5 -80q0 -49 -33 -82.5t-81 -33.5t-81.5 33.5t-33.5 82.5zM678 1212q0 47 34 80t83 33q46 0 79 -33 t33 -80q0 -49 -33 -82.5t-79 -33.5q-48 0 -82.5 33.5t-34.5 82.5z" />
<glyph unicode="&#xfd;" horiz-adv-x="1138" d="M16 989h318l266 -567l250 567h272l-645 -1448l-270 -2l254 572zM502 1069l141 289h240l-236 -289h-145z" />
<glyph unicode="&#xfe;" horiz-adv-x="1177" d="M147 -457v1889l263 2v-521q53 50 119.5 75.5t121.5 25.5h15h8h2q169 0 287 -115q74 -73 107.5 -169t33.5 -228q0 -100 -35.5 -193.5t-100 -168t-164.5 -119.5t-220 -46h-4h-2h-3q-83 0 -165 29v-461h-263zM410 209q65 -35 149 -35q125 0 196.5 85.5t71.5 234.5 q0 167 -82 249q-63 60 -147 60h-2h-4q-51 -2 -99.5 -26.5t-82.5 -71.5v-496z" />
<glyph unicode="&#xff;" horiz-adv-x="1138" d="M16 989h318l266 -567l250 567h272l-645 -1448l-270 -2l254 572zM287 1212q0 48 32.5 80.5t81.5 32.5q47 0 80 -33t33 -80q0 -49 -33 -82.5t-80 -33.5q-48 0 -81 33.5t-33 82.5zM670 1212q0 47 33.5 80t80.5 33t81 -33t34 -80q0 -49 -33.5 -82.5t-81.5 -33.5t-81 33.5 t-33 82.5z" />
<glyph unicode="&#x152;" horiz-adv-x="2080" d="M94 717q0 158 60 296.5t165.5 237.5t254.5 156t321 57q122 0 240 -32h837v-220h-573v-381h555v-210h-555v-402h592v-219h-856q-122 -33 -244 -33q-228 0 -410.5 98t-284.5 269t-102 383zM410 717q0 -226 138 -376.5t347 -150.5q117 0 215 48v956q-96 47 -215 47 q-212 0 -348.5 -147.5t-136.5 -376.5z" />
<glyph unicode="&#x153;" horiz-adv-x="1882" d="M74 498q0 146 70.5 265.5t194.5 187t275 67.5q251 0 396 -172q137 170 346 170q203 0 321 -121q131 -131 131 -381q0 -47 -2 -72h-663q7 -106 75.5 -175.5t172.5 -78.5q18 -2 53 -2q153 0 287 90l45 -186q-170 -113 -387 -113q-245 0 -381 173q-150 -173 -396 -173 q-230 0 -384 149t-154 372zM350 498q0 -136 74 -222t190 -86q118 0 193.5 86t75.5 222t-75.5 221.5t-193.5 85.5q-116 0 -190 -85.5t-74 -221.5zM1151 618h403q-5 90 -52 146.5t-144 56.5q-80 0 -136.5 -52t-70.5 -151z" />
<glyph unicode="&#x178;" horiz-adv-x="1337" d="M18 1432h340l287 -443q20 -33 37 -71q7 21 37 71l285 443h315l-514 -746v-686h-289v682zM369 1626q0 48 32.5 81.5t81.5 33.5q47 0 80 -34t33 -81q0 -49 -32.5 -82t-80.5 -33q-47 0 -80.5 34t-33.5 81zM752 1626q0 47 33.5 81t80.5 34t80 -34t33 -81q0 -49 -32.5 -82 t-80.5 -33q-47 0 -80.5 34t-33.5 81z" />
<glyph unicode="&#x2c6;" horiz-adv-x="624" d="M33 1075l209 299h135l215 -299h-150l-135 152l-129 -152h-145z" />
<glyph unicode="&#x2dc;" horiz-adv-x="628" d="M35 1090v22q0 93 39 145t112 60q8 2 21 2q39 0 131 -35q84 -37 111 -37h6q46 6 39 70h102v-27q0 -91 -40 -141.5t-112 -58.5q-12 -3 -24 -3q-18 0 -38.5 4.5t-33.5 9t-41 16t-41 16.5q-67 26 -84 26h-6q-22 0 -32 -20.5t-7 -48.5h1h1h1h1h1h1h-1h-1h-1h-1h-1h-1h-1h-1h-1 h-1h-1h-1h-1h-1h-1h-1h-1h-1h-1h-1h-2h-1h-1h-1h-1h-1h-1h-2h-1h-1h-1h-2h-1h-1h-2h-1h-1h-2h-1h-1h-2h-1h-2h-1h-2h-1h-2h-1h-2h-1h-2h-1h-2h-2h-1h-2h-1h-2h-2h-1h-2h-2h-1h-2h-2h-2h-1h-2h-2h-2h-1h-2h-2h-9z" />
<glyph unicode="&#x2000;" horiz-adv-x="916" />
<glyph unicode="&#x2001;" horiz-adv-x="1833" />
<glyph unicode="&#x2002;" horiz-adv-x="916" />
<glyph unicode="&#x2003;" horiz-adv-x="1833" />
<glyph unicode="&#x2004;" horiz-adv-x="611" />
<glyph unicode="&#x2005;" horiz-adv-x="458" />
<glyph unicode="&#x2006;" horiz-adv-x="305" />
<glyph unicode="&#x2007;" horiz-adv-x="305" />
<glyph unicode="&#x2008;" horiz-adv-x="229" />
<glyph unicode="&#x2009;" horiz-adv-x="366" />
<glyph unicode="&#x200a;" horiz-adv-x="101" />
<glyph unicode="&#x2010;" horiz-adv-x="763" d="M90 496v190h584v-190h-584z" />
<glyph unicode="&#x2011;" horiz-adv-x="763" d="M90 496v190h584v-190h-584z" />
<glyph unicode="&#x2012;" horiz-adv-x="763" d="M90 496v190h584v-190h-584z" />
<glyph unicode="&#x2013;" horiz-adv-x="1040" d="M8 496v190h1024v-190h-1024z" />
<glyph unicode="&#x2014;" horiz-adv-x="2064" d="M8 496v192h2048v-192h-2048z" />
<glyph unicode="&#x2018;" horiz-adv-x="569" d="M143 1083q0 62 29 136q64 156 203 231l45 -49q-6 -4 -15 -10.5t-33.5 -29.5t-43 -48t-34.5 -64t-18 -78q15 3 27 3q55 0 89 -35t34 -88v-2v-7q-2 -54 -42 -93.5t-95 -39.5q-38 0 -70 18.5t-49 49.5q-27 49 -27 106z" />
<glyph unicode="&#x2019;" horiz-adv-x="569" d="M143 1309v4v4q2 56 41.5 94.5t94.5 38.5q38 0 70.5 -18.5t49.5 -49.5q27 -50 27 -106q0 -59 -29 -133q-34 -77 -80.5 -135t-123.5 -99l-43 49q6 4 15 10.5t33 29.5t42.5 48.5t34.5 64.5t18 79q-10 -2 -27 -2q-55 0 -89 34t-34 87z" />
<glyph unicode="&#x201a;" horiz-adv-x="593" d="M156 137v2v6q2 56 41 95t94 39q38 0 71 -18.5t50 -49.5q26 -48 26 -107q0 -65 -28 -133q-33 -77 -80 -134.5t-125 -98.5l-43 49q6 4 15 10.5t33 29.5t42.5 47.5t34.5 63.5t18 78q-5 0 -13.5 -1t-12.5 -1q-55 0 -89 35t-34 88z" />
<glyph unicode="&#x201c;" horiz-adv-x="948" d="M143 1083q0 62 29 136q64 156 203 231l45 -49q-6 -4 -15 -10.5t-33.5 -29.5t-43 -48t-34.5 -64t-18 -78q15 3 27 3q55 0 89 -35t34 -88v-2v-7q-2 -54 -42 -93.5t-95 -39.5q-38 0 -70 18.5t-49 49.5q-27 49 -27 106zM522 1083q0 62 29 136q33 76 80.5 133t124.5 98l43 -49 q-6 -4 -15 -10.5t-33.5 -29.5t-43 -48t-34.5 -64t-18 -78q15 3 27 3q55 0 89 -35t34 -88v-2v-7q-2 -55 -41 -94t-94 -39q-38 0 -71 18.5t-50 49.5q-27 50 -27 106z" />
<glyph unicode="&#x201d;" horiz-adv-x="948" d="M143 1309v4v4q2 56 41.5 94.5t94.5 38.5q38 0 70.5 -18.5t49.5 -49.5q27 -50 27 -106q0 -59 -29 -133q-34 -77 -80.5 -135t-123.5 -99l-43 49q6 4 15 10.5t33 29.5t42.5 48.5t34.5 64.5t18 79q-10 -2 -27 -2q-55 0 -89 34t-34 87zM522 1309v4v4q1 55 41 94t96 39 q37 0 69.5 -18.5t49.5 -49.5q27 -50 27 -106q0 -59 -29 -133q-66 -160 -203 -234l-45 49q6 4 15 10.5t33.5 29.5t43 48.5t34.5 64.5t18 79q-10 -2 -27 -2q-55 0 -89 34t-34 87z" />
<glyph unicode="&#x201e;" horiz-adv-x="972" d="M156 137v2v6q2 56 41 95t94 39q38 0 71 -18.5t50 -49.5q26 -48 26 -107q0 -65 -28 -133q-33 -77 -80 -134.5t-125 -98.5l-43 49q6 4 15 10.5t33 29.5t42.5 47.5t34.5 63.5t18 78q-5 0 -13.5 -1t-12.5 -1q-55 0 -89 35t-34 88zM535 137v2v6q2 56 42 95t95 39 q37 0 69.5 -18.5t49.5 -49.5q26 -48 26 -107q0 -62 -29 -133q-64 -158 -202 -233l-45 49q6 4 15 10.5t33 29.5t42.5 47.5t34.5 63.5t18 78q-5 0 -14 -1t-13 -1q-55 0 -88.5 35t-33.5 88z" />
<glyph unicode="&#x2022;" horiz-adv-x="702" d="M115 627q0 97 69.5 165t167.5 68q97 0 166.5 -68.5t69.5 -164.5q0 -97 -69.5 -165.5t-166.5 -68.5q-98 0 -167.5 68.5t-69.5 165.5z" />
<glyph unicode="&#x2026;" horiz-adv-x="1671" d="M115 133q0 62 43 105t104 43q62 0 105 -43.5t43 -104.5t-43 -104t-105 -43t-104.5 43t-42.5 104zM688 133q0 61 43 104.5t105 43.5q61 0 104 -43t43 -105q0 -61 -42.5 -104t-104.5 -43t-105 43t-43 104zM1262 133q0 62 43 105t104 43t104 -43t43 -105q0 -61 -43 -104 t-104 -43t-104 43t-43 104z" />
<glyph unicode="&#x202f;" horiz-adv-x="366" />
<glyph unicode="&#x2039;" horiz-adv-x="636" d="M53 473l297 475h234l-267 -475l267 -473h-234z" />
<glyph unicode="&#x203a;" horiz-adv-x="636" d="M53 0l266 473l-266 475h234l297 -475l-297 -473h-234z" />
<glyph unicode="&#x205f;" horiz-adv-x="458" />
<glyph unicode="&#x2122;" horiz-adv-x="1460" d="M94 1323v107h522v-107h-190v-551h-141v551h-191zM705 772v658h149l190 -289l191 289h131v-658h-141v420l-158 -240h-66l-155 240v-420h-141z" />
<glyph unicode="&#x25fc;" horiz-adv-x="993" d="M0 0v993h993v-993h-993z" />
<glyph unicode="&#xfb01;" horiz-adv-x="1214" d="M43 788v203h135v27q0 119 30.5 199.5t98.5 138.5q101 88 283 88q143 0 219 -49v-215q-82 49 -182 49q-84 0 -136.5 -46.5t-52.5 -138.5v-53h236v-203h-236v-788h-260v788h-135zM797 0v989h262v-989h-262z" />
<glyph unicode="&#xfb02;" horiz-adv-x="1150" d="M43 786v203h135v8q0 131 34 214.5t105 142.5q68 54 150 72t190 18q83 0 176 -21t162 -61v-1362h-262v1202q-56 27 -117 27h-2h-2h-6q-75 0 -121.5 -47t-46.5 -138v-55h213v-203h-213v-786h-260v786h-135z" />
</font>
</defs>
</svg>
