<?xml version="1.0" standalone="no"?>
<!DOCTYPE svg PUBLIC "-//W3C//DTD SVG 1.1//EN" "http://www.w3.org/Graphics/SVG/1.1/DTD/svg11.dtd" >
<svg xmlns="http://www.w3.org/2000/svg">
<metadata></metadata>
<defs>
<font id="astoria_sansbold" horiz-adv-x="1994" >
<font-face units-per-em="2048" ascent="1544" descent="-504" />
<missing-glyph horiz-adv-x="499" />
<glyph horiz-adv-x="0" />
<glyph horiz-adv-x="682" />
<glyph unicode="&#x9;" />
<glyph unicode="&#xa;" />
<glyph unicode="&#xd;" />
<glyph />
<glyph />
<glyph />
<glyph />
<glyph />
<glyph />
<glyph />
<glyph unicode=" "  horiz-adv-x="499" />
<glyph unicode="&#x09;" horiz-adv-x="499" />
<glyph unicode="&#xa0;" horiz-adv-x="499" />
<glyph unicode="!" horiz-adv-x="886" d="M246 1434h395l-53 -1018h-291zM266 152q0 73 52 124.5t126 51.5q72 0 124.5 -51.5t52.5 -124.5t-52.5 -125t-124.5 -52q-74 0 -126 52t-52 125z" />
<glyph unicode="&#x22;" horiz-adv-x="995" d="M117 1294q0 67 49 115.5t117 48.5q110 0 155 -96q21 -48 21 -109q0 -115 -37 -198q-31 -74 -86.5 -126t-108.5 -71l-63 96q62 26 94.5 78.5t34.5 106.5h-25h-4h-2q-70 0 -107.5 42.5t-37.5 112.5zM535 1294q0 67 48.5 115.5t116.5 48.5q111 0 156 -96q23 -53 23 -109 q0 -111 -39 -198q-31 -74 -86.5 -126t-108.5 -71l-63 96q62 26 94.5 78.5t34.5 106.5h-25h-4q-70 0 -108.5 42.5t-38.5 112.5z" />
<glyph unicode="#" horiz-adv-x="1032" d="M51 690l35 168h154l32 156h-153l35 168h153l53 252h189l-53 -252h145l51 252h189l-54 -252h154l-35 -168h-153l-33 -156h151l-32 -168h-154l-55 -256h-187l54 256h-146l-53 -256h-186l53 256h-154zM426 858h145l33 156h-143z" />
<glyph unicode="$" horiz-adv-x="1138" d="M127 1022q0 25 2 37q9 132 93 215.5t218 116.5v178h273v-166q153 -20 237 -86v-285q-138 123 -321 123q-77 0 -118.5 -25.5t-47.5 -68.5q-2 -8 -2 -21q0 -43 35.5 -76t132.5 -90q183 -101 205 -116q178 -116 178 -326v-22q-6 -127 -83 -222.5t-216 -134.5v-211h-273v193 q-94 9 -172 33t-125 57v311q58 -64 164 -112t201 -48q82 0 125.5 34.5t48.5 92.5v11q0 46 -37.5 83.5t-122.5 88.5q-27 15 -99.5 53.5t-103.5 58.5q-38 24 -64.5 46t-59.5 60.5t-50.5 94t-17.5 123.5z" />
<glyph unicode="%" horiz-adv-x="1884" d="M96 1030q0 192 100 310t263 118t262.5 -118t99.5 -310q0 -191 -99.5 -308.5t-262.5 -117.5t-263 117.5t-100 308.5zM332 1030q0 -114 34 -180t93 -66t93 66t34 180q0 115 -34 181.5t-93 66.5t-93 -66.5t-34 -181.5zM414 0l821 1434h238l-824 -1434h-235zM1063 403 q0 192 99.5 310t262.5 118t263 -118t100 -310q0 -191 -100 -308.5t-263 -117.5t-262.5 117.5t-99.5 308.5zM1298 403q0 -114 34 -179.5t93 -65.5t93 65.5t34 179.5q0 115 -34 181.5t-93 66.5t-93 -66.5t-34 -181.5z" />
<glyph unicode="&#x26;" horiz-adv-x="1525" d="M76 410q0 252 268 391q-102 140 -102 284q-1 97 35 173t96.5 120.5t132.5 67t151 22.5q62 0 119.5 -11.5t110 -37.5t91.5 -64.5t62 -97t23 -131.5q0 -200 -268 -354l260 -289q37 81 37 193q0 85 -23 172h305q12 -86 12 -162q0 -250 -137 -420l238 -266h-416l-72 84 q-153 -100 -405 -107h-19q-54 0 -108.5 9t-112 27.5t-106.5 52.5t-88 80t-61.5 114t-22.5 150zM438 432q4 -91 66.5 -147t150.5 -58h17h6h2q69 0 139 31l-313 352q-68 -65 -68 -161v-17zM557 1114q0 -43 21 -82t63 -88q131 71 131 182q0 47 -26 82t-76 35q-48 0 -80.5 -36.5 t-32.5 -92.5z" />
<glyph unicode="'" horiz-adv-x="575" d="M117 1294q0 67 49 115.5t117 48.5q110 0 155 -96q21 -48 21 -109q0 -115 -37 -198q-31 -74 -86.5 -126t-108.5 -71l-63 96q62 26 94.5 78.5t34.5 106.5h-25h-4h-2q-70 0 -107.5 42.5t-37.5 112.5z" />
<glyph unicode="(" horiz-adv-x="700" d="M80 737q0 273 108 523.5t289 414.5h246q-153 -205 -225 -427.5t-72 -510.5t72 -510.5t225 -427.5h-246q-181 164 -289 414.5t-108 523.5z" />
<glyph unicode=")" horiz-adv-x="700" d="M-23 -201q153 205 225 427.5t72 510.5t-72 510.5t-225 427.5h248q180 -164 288 -415t108 -523t-108 -523t-288 -415h-248z" />
<glyph unicode="*" horiz-adv-x="763" d="M96 1094l142 59l-142 59l90 162l131 -106l-28 166h188l-24 -166l125 106l90 -162l-152 -59l152 -59l-90 -162l-125 106l24 -166h-188l30 166l-133 -106z" />
<glyph unicode="+" horiz-adv-x="1179" d="M66 414v233h395v410h258v-410h395v-233h-395v-414h-258v414h-395z" />
<glyph unicode="," horiz-adv-x="565" d="M102 152q0 72 51.5 123t122.5 51q115 0 164 -101q23 -48 23 -114q0 -106 -43 -187q-39 -77 -98 -120t-113 -54l-59 111q54 11 92 46t39 83h-19h-4h-2q-73 0 -113.5 44.5t-40.5 117.5z" />
<glyph unicode="-" horiz-adv-x="782" d="M72 473v266h639v-266h-639z" />
<glyph unicode="." horiz-adv-x="559" d="M102 150q0 73 52.5 125.5t124.5 52.5q73 0 125.5 -52t52.5 -126q0 -72 -52.5 -124.5t-125.5 -52.5q-72 0 -124.5 52.5t-52.5 124.5z" />
<glyph unicode="/" horiz-adv-x="667" d="M-53 -45l542 1520h232l-543 -1520h-231z" />
<glyph unicode="0" horiz-adv-x="1355" d="M66 715q0 337 168.5 543t443.5 206t443.5 -206t168.5 -543t-168.5 -543.5t-443.5 -206.5t-443.5 206.5t-168.5 543.5zM438 715q0 -217 62.5 -343t177.5 -126q114 0 175.5 126t61.5 343q0 219 -61.5 345t-175.5 126q-115 0 -177.5 -126t-62.5 -345z" />
<glyph unicode="1" horiz-adv-x="864" d="M55 1028v252l463 154h168v-1434h-356v1114z" />
<glyph unicode="2" horiz-adv-x="1134" d="M76 0v137q125 123 256.5 280t197.5 277q47 86 67.5 149t20.5 132q0 95 -57 151t-155 56q-169 0 -308 -142l-22 279q162 143 434 143q231 0 357 -122t126 -341q0 -171 -94 -343t-309 -396h440v-260h-954z" />
<glyph unicode="3" horiz-adv-x="1075" d="M76 63l22 285q136 -110 314 -110q99 0 157 52.5t58 135.5q0 190 -277 190h-88v248h113q107 0 169 44.5t62 127.5q0 82 -53 121t-139 39q-139 0 -279 -98l-31 262q156 102 406 102q84 0 160.5 -21t142.5 -64t105.5 -119.5t39.5 -178.5q0 -58 -15 -109.5t-37 -85.5 t-51 -61.5t-52 -42t-45 -24.5q117 -41 174 -128.5t57 -207.5q0 -61 -19 -122.5t-61.5 -121t-103.5 -105.5t-153 -74t-201 -28q-246 0 -375 94z" />
<glyph unicode="4" horiz-adv-x="1144" d="M25 369v213l575 852h340v-816h170v-249h-170v-369h-356v369h-559zM358 612h244v363z" />
<glyph unicode="5" horiz-adv-x="1134" d="M127 55l29 285q109 -90 256 -90q113 0 178 59.5t65 153.5q0 55 -24.5 97.5t-65 66t-86 35.5t-92.5 12q-105 0 -207 -27l39 787h735v-260h-426l-12 -224h33q96 0 185.5 -30t152.5 -84q141 -122 141 -349q0 -145 -73 -262.5t-200 -183.5t-282 -66q-198 0 -346 80z" />
<glyph unicode="6" horiz-adv-x="1189" d="M86 561q0 156 44 294.5t118 240.5t172 181t206 126t220 65l131 -237q-200 -35 -329.5 -146t-168.5 -276q41 35 108 55.5t126 20.5q80 0 152.5 -26.5t131 -77.5t93 -135t34.5 -189q0 -111 -42.5 -204.5t-113.5 -154t-160.5 -94t-184.5 -33.5q-238 0 -379 146 q-70 70 -114 189.5t-44 254.5zM453 510q0 -54 7.5 -100t25.5 -89t52.5 -67.5t82.5 -24.5q55 0 91 30t49 71t13 92q0 81 -37 137.5t-121 56.5q-82 0 -163 -73v-33z" />
<glyph unicode="7" horiz-adv-x="1085" d="M86 1174v260h913v-187l-518 -1306q-258 74 -327 98l454 1135h-522zM86 1174h522l-454 -1135q69 -24 327 -98l518 1306v187h-913v-260zM86 1174v260h913v-187l-518 -1306q-258 74 -327 98l454 1135h-522z" />
<glyph unicode="8" horiz-adv-x="1173" d="M70 403q0 135 70.5 225.5t178.5 121.5q-36 11 -72 35t-69 61t-53.5 92.5t-20.5 120.5q0 120 65 213t175 141.5t244 48.5q133 0 242 -48.5t174 -141.5t65 -213q0 -65 -20.5 -120.5t-53.5 -92.5t-69 -61t-72 -35q108 -31 179 -121.5t71 -225.5q0 -60 -16.5 -118.5t-56 -116 t-97 -101.5t-147 -71t-199.5 -27t-200 27t-148 71t-97.5 101.5t-56 116t-16.5 118.5zM426 408q0 -84 47 -137.5t119 -53.5q71 0 117.5 53.5t46.5 137.5t-46.5 137t-117.5 53q-72 0 -119 -53t-47 -137zM438 1042q0 -76 42 -124t106 -48q63 0 104 48t41 124t-41 125.5 t-104 49.5t-105.5 -49.5t-42.5 -125.5z" />
<glyph unicode="9" horiz-adv-x="1189" d="M76 1001q0 105 44 194t116.5 146.5t162.5 90t185 32.5q231 0 372 -141q67 -67 107.5 -179t40.5 -241q0 -199 -59 -366t-162.5 -283.5t-243 -189.5t-303.5 -95l-125 232q237 37 366.5 163t147.5 302q-39 -36 -105.5 -56t-136.5 -20q-79 0 -151 26t-130 75.5t-92 129.5 t-34 180zM422 1034q0 -77 36.5 -131.5t119.5 -54.5q85 0 161 72q2 12 2 41q0 258 -153 258q-82 0 -124 -55.5t-42 -129.5z" />
<glyph unicode=":" horiz-adv-x="559" d="M102 152q0 72 52.5 124t124.5 52q73 0 125.5 -52t52.5 -124q0 -74 -52.5 -126.5t-125.5 -52.5q-72 0 -124.5 53t-52.5 126zM102 643q0 72 52.5 124t124.5 52q73 0 125.5 -52t52.5 -124q0 -73 -52.5 -125.5t-125.5 -52.5q-72 0 -124.5 52.5t-52.5 125.5z" />
<glyph unicode=";" horiz-adv-x="565" d="M102 152q0 72 51.5 123t122.5 51q115 0 164 -101q23 -48 23 -114q0 -106 -43 -187q-39 -77 -98 -120t-113 -54l-59 111q54 11 92 46t39 83h-19h-4h-2q-73 0 -113.5 44.5t-40.5 117.5zM102 643q0 72 52.5 124t124.5 52q73 0 125.5 -52t52.5 -124q0 -73 -52.5 -125.5 t-125.5 -52.5q-72 0 -124.5 52.5t-52.5 125.5z" />
<glyph unicode="&#x3c;" horiz-adv-x="1134" d="M76 449v137l983 432v-205l-684 -295l684 -295v-207z" />
<glyph unicode="=" horiz-adv-x="1202" d="M76 221v234h1050v-234h-1050zM76 604v234h1050v-234h-1050z" />
<glyph unicode="&#x3e;" horiz-adv-x="1134" d="M76 16v207l684 295l-684 295v205l983 -432v-137z" />
<glyph unicode="?" horiz-adv-x="899" d="M90 1337q143 119 363 119q183 0 289 -97.5t106 -254.5q0 -38 -5.5 -74t-12 -63t-22 -60t-25 -51t-32.5 -49.5t-32 -43t-37 -45.5t-35 -42q-55 -67 -74.5 -107t-19.5 -104q0 -33 2 -51h-287q-10 65 -10 108q0 176 129 318q102 110 102 202q0 15 -2 23q-7 58 -48 89.5 t-103 31.5q-108 0 -219 -96zM246 150q0 74 52 126t126 52q73 0 124.5 -52t51.5 -126q0 -72 -51.5 -124.5t-124.5 -52.5t-125.5 52.5t-52.5 124.5z" />
<glyph unicode="@" horiz-adv-x="1558" d="M76 639q0 22 4 76q17 210 123.5 378t280 262.5t380.5 94.5q304 0 473 -190q146 -161 146 -400q0 -55 -8 -102q-12 -85 -37.5 -153.5t-56 -111.5t-69 -75t-70 -47.5t-66 -24.5t-50 -10.5t-28.5 -1.5q-73 0 -122.5 33.5t-64.5 97.5q-45 -59 -116 -92t-146 -33 q-124 0 -198 90q-60 78 -60 193q0 57 19 131q41 156 165.5 258t274.5 102q41 0 82.5 -12.5t62.5 -38.5l9 -8l20 57h160l-119 -504q-6 -24 -6 -49q0 -40 18 -61t51 -21h7q16 0 33 5.5t41 23.5t44 47.5t39 84t29 126.5q6 49 6 92q0 193 -110 318q-63 69 -156 106t-203 37 q-240 0 -410 -170t-192 -432q-4 -46 -4 -68q0 -232 135 -373q139 -145 375 -145h4q175 0 315 80l21 -141q-146 -79 -324 -82h-22q-326 0 -510 190q-170 179 -170 463zM578 637q0 -69 32 -109q33 -39 86 -39q5 0 11 3q47 2 98.5 32t83.5 82l69 303q-41 56 -112 56 q-89 0 -158.5 -66t-97.5 -176q-12 -47 -12 -86z" />
<glyph unicode="A" horiz-adv-x="1507" d="M-18 0l571 1434h383l590 -1434h-402l-118 307h-555l-111 -307h-358zM537 551h376l-159 414q-24 61 -33 120h-4q-8 -53 -31 -120z" />
<glyph unicode="B" horiz-adv-x="1370" d="M143 0v1434h617q95 0 172.5 -22.5t127.5 -59t83.5 -86t48 -101t14.5 -106.5q0 -97 -47 -173t-123 -110q132 -38 200.5 -129.5t68.5 -226.5q0 -77 -32.5 -151.5t-92 -134.5t-154.5 -97t-209 -37h-674zM520 231h178q58 0 102 15.5t68.5 38t39.5 52t19.5 52.5t4.5 45 t-4.5 45t-19.5 52.5t-39.5 52t-68.5 38t-102 15.5h-178v-406zM520 850h146q47 0 82.5 13.5t55 33t31.5 45t15.5 45.5t3.5 39t-3.5 39t-15.5 45.5t-31.5 45t-55 33t-82.5 13.5h-146v-352z" />
<glyph unicode="C" horiz-adv-x="1396" d="M76 717q0 137 41.5 256.5t116.5 208.5t177.5 153t227.5 96.5t264 32.5q285 0 449 -114v-306q-71 63 -174 102.5t-220 39.5q-139 0 -250 -57t-175 -164.5t-64 -247.5q0 -209 138.5 -338t350.5 -129q117 0 220.5 39.5t173.5 101.5v-305q-165 -115 -449 -115 q-174 0 -324.5 51.5t-262.5 145.5t-176 236t-64 313z" />
<glyph unicode="D" horiz-adv-x="1566" d="M143 0v1434h633q142 0 261.5 -38.5t204 -106t143.5 -158.5t87.5 -195.5t28.5 -218.5t-28.5 -218.5t-87.5 -195.5t-143.5 -158.5t-204 -106t-261.5 -38.5h-633zM514 268h145q98 0 175.5 26t127.5 68.5t82.5 102t46 121.5t13.5 131q0 70 -13.5 133t-46 123t-82.5 103 t-127.5 69t-175.5 26h-145v-903z" />
<glyph unicode="E" horiz-adv-x="1155" d="M143 0v1434h924v-258h-553v-324h533v-252h-533v-342h569v-258h-940z" />
<glyph unicode="F" horiz-adv-x="1107" d="M143 0v1434h893v-258h-522v-324h504v-252h-504v-600h-371z" />
<glyph unicode="G" horiz-adv-x="1562" d="M76 717q0 169 65 310.5t177 236.5t263 147.5t322 52.5q343 0 496 -108v-303q-68 59 -184.5 96t-247.5 37q-213 0 -355.5 -129.5t-142.5 -339.5q0 -209 138.5 -338t350.5 -129q74 0 142 12v238h-219v252h575v-662q-216 -119 -553 -119q-178 0 -327 46.5t-261.5 137 t-175.5 234.5t-63 328z" />
<glyph unicode="H" horiz-adv-x="1609" d="M143 0v1434h371v-578h582v578h370v-1434h-370v596h-582v-596h-371z" />
<glyph unicode="I" horiz-adv-x="657" d="M143 0v1434h371v-1434h-371z" />
<glyph unicode="J" horiz-adv-x="811" d="M16 193q47 -13 95 -13q57 0 100 15q54 24 70 70.5t16 119.5v1049h371v-1002q0 -152 -27 -244t-100 -165q-53 -53 -144.5 -83t-195.5 -30q-83 0 -146 16z" />
<glyph unicode="K" horiz-adv-x="1503" d="M143 0v1434h371v-613l506 613h407l-555 -643l627 -791h-471l-514 668v-668h-371z" />
<glyph unicode="L" horiz-adv-x="1103" d="M143 0v1434h371v-1176h555v-258h-926z" />
<glyph unicode="M" horiz-adv-x="1857" d="M143 0v1434h349l448 -609l446 609h328v-1434h-356v870l-375 -520h-115l-368 514v-864h-357z" />
<glyph unicode="N" horiz-adv-x="1671" d="M143 0v1434h330l705 -842v842h350v-1434h-293l-741 879v-879h-351z" />
<glyph unicode="O" horiz-adv-x="1789" d="M76 707q0 216 104.5 388.5t291.5 269.5t421 97q179 0 332 -56t260.5 -155t168 -239.5t60.5 -304.5q0 -112 -30.5 -219t-96.5 -205t-161 -171.5t-233.5 -117t-303.5 -43.5q-233 0 -419 97t-290 270t-104 389zM473 707q0 -201 118 -334t304 -133q188 0 305 131.5t117 335.5 t-117 335.5t-305 131.5q-189 0 -305.5 -131.5t-116.5 -335.5z" />
<glyph unicode="P" horiz-adv-x="1318" d="M143 0v1434h592q233 0 374.5 -122.5t141.5 -324.5t-141.5 -324t-374.5 -122h-221v-541h-371zM514 786h148q98 0 155 52.5t57 144.5t-56.5 143.5t-155.5 51.5h-148v-392z" />
<glyph unicode="Q" horiz-adv-x="1802" d="M82 711q0 216 104.5 388.5t291.5 269.5t421 97q179 0 332 -56t260.5 -155t168 -239.5t60.5 -304.5q0 -109 -31.5 -210.5t-93 -190.5t-163 -156.5t-232.5 -100.5q269 -69 512 -78l-37 -282q-986 119 -1329 428q-124 112 -194 264t-70 326zM477 711q0 -201 118.5 -334 t303.5 -133q189 0 306.5 131.5t117.5 335.5t-117.5 335.5t-306.5 131.5q-188 0 -305 -131.5t-117 -335.5z" />
<glyph unicode="R" horiz-adv-x="1443" d="M143 0v1434h578q217 0 348 -114t131 -308q0 -106 -58.5 -196t-158.5 -132q51 -33 97.5 -95.5t109.5 -166.5l49 -80l199 -342h-398l-172 297q-47 82 -86 138t-65.5 85.5t-53.5 44.5t-43 18t-42 3h-64v-586h-371zM514 815h111q94 0 147 49t53 137q0 87 -53 136t-147 49 h-111v-371z" />
<glyph unicode="S" horiz-adv-x="1126" d="M76 1044q0 25 2 39q7 95 53.5 169t121.5 119t167 68t196 23q248 0 381 -100v-307q-152 133 -358 133q-90 0 -137 -30t-49 -73v-10q0 -51 39.5 -91t144.5 -99q184 -103 225 -129q199 -122 199 -350v-27q-8 -177 -150.5 -293.5t-390.5 -116.5q-133 0 -246 29.5t-180 75.5 v336q64 -70 179.5 -121t222.5 -51q91 0 140 36.5t54 100.5q2 2 2 10q0 51 -43 92t-139 92q-202 112 -219 123q-33 20 -57 37t-56 49t-52.5 66.5t-35 87t-14.5 112.5z" />
<glyph unicode="T" horiz-adv-x="1251" d="M10 1176v258h1235v-258h-438v-1176h-371v1176h-426z" />
<glyph unicode="U" horiz-adv-x="1617" d="M143 580v854h371v-863q0 -58 15 -111t48 -101t93.5 -76.5t142.5 -28.5q137 0 218 83t81 234v863h363v-854q0 -294 -176 -453.5t-490 -159.5t-489.5 159.5t-176.5 453.5z" />
<glyph unicode="V" horiz-adv-x="1560" d="M4 1434h416l346 -951q23 -67 31 -121h4q7 44 30 121l347 951h378l-595 -1434h-363z" />
<glyph unicode="W" horiz-adv-x="2377" d="M-6 1434h416l262 -840q26 -85 33 -121h2q15 72 32 121l324 840h297l332 -840q19 -48 30 -121h4q7 44 31 121l256 840h371l-510 -1434h-320l-368 903l-346 -903h-334z" />
<glyph unicode="X" horiz-adv-x="1574" d="M-2 0l573 778l-489 656h459l276 -383l264 383h408l-483 -648l571 -786h-451l-352 492l-348 -492h-428z" />
<glyph unicode="Y" horiz-adv-x="1490" d="M-4 1434h432l344 -531l328 531h395l-565 -822v-612h-371v602z" />
<glyph unicode="Z" horiz-adv-x="1273" d="M45 0v139l637 1035h-616v260h1126v-138l-635 -1036h651v-260h-1163z" />
<glyph unicode="[" horiz-adv-x="739" d="M168 -231v1898h498v-215h-189v-1470h189v-215z" />
<glyph unicode="\" horiz-adv-x="667" d="M-53 1475h231l543 -1520h-232z" />
<glyph unicode="]" horiz-adv-x="739" d="M74 -18h188v1470h-188v215h497v-1898l-497 -2v215z" />
<glyph unicode="^" horiz-adv-x="1167" d="M76 655l407 777h195l414 -777h-242l-268 504l-273 -504h-233z" />
<glyph unicode="_" horiz-adv-x="1046" d="M0 -143h1047v-142h-1047v142z" />
<glyph unicode="`" horiz-adv-x="438" d="M20 1413h252l146 -297h-162z" />
<glyph unicode="a" horiz-adv-x="1075" d="M39 260q0 93 49 165.5t131.5 115t178 65t202.5 25.5v41q0 57 -38 85.5t-105 28.5q-176 0 -342 -114v252q74 47 185.5 77.5t238.5 30.5q68 0 121.5 -8.5t108 -34.5t91 -68.5t59.5 -115.5t23 -172v-371q0 -46 25 -55q8 -4 20 -4q37 0 68 22v-186q-48 -33 -111.5 -49.5 t-114.5 -16.5q-147 0 -188 107q-43 -52 -122.5 -79.5t-147.5 -27.5q-50 0 -95 8t-89 29t-76 52.5t-52 82.5t-20 115zM375 307q0 -51 30 -74.5t70 -23.5q39 0 73 15.5t50 47.5v185q-102 0 -162.5 -40t-60.5 -110z" />
<glyph unicode="b" horiz-adv-x="1214" d="M117 86v1348h344v-465q115 63 254 63q62 0 120.5 -14.5t118.5 -51t104.5 -93t72.5 -148t28 -207.5q0 -113 -35.5 -206.5t-93 -155.5t-132.5 -104.5t-152.5 -61.5t-155.5 -19q-143 0 -256.5 26t-216.5 89zM461 233q56 -18 125 -18q45 0 90 17t72 44q77 80 77 228 q0 125 -55.5 200.5t-148.5 75.5q-96 0 -160 -55v-492z" />
<glyph unicode="c" horiz-adv-x="952" d="M35 504q0 230 155 379q162 151 424 151q180 0 287 -71v-267q-96 84 -242 84q-114 0 -190 -74.5t-76 -201.5q0 -128 76 -203.5t190 -75.5q146 0 242 84v-266q-113 -72 -287 -72q-259 0 -424 154q-155 145 -155 379z" />
<glyph unicode="d" horiz-adv-x="1239" d="M55 500q0 117 44.5 219t121.5 176q148 137 367 137q113 0 190 -53v455h344v-1434h-313l-16 88q-52 -56 -127.5 -86.5t-147.5 -30.5q-202 0 -315 113q-72 70 -110 177.5t-38 238.5zM412 494q0 -154 73 -230q49 -49 131 -49q107 0 162 80v430q-53 53 -147 53 q-98 0 -158.5 -78t-60.5 -204v-2z" />
<glyph unicode="e" horiz-adv-x="1146" d="M45 502q0 250 157 391t408 141q238 0 365 -141.5t127 -390.5q0 -32 -4 -64h-692q21 -95 73.5 -151t134.5 -66q4 0 40.5 -3t54.5 -3q173 0 307 94l47 -213q-68 -52 -185 -88.5t-268 -36.5q-163 0 -290 61t-201 182.5t-74 287.5zM399 616h369q-13 205 -176 205 q-74 0 -126 -54t-67 -151z" />
<glyph unicode="f" horiz-adv-x="735" d="M25 762v244h127q0 126 37 208.5t110 141.5q107 88 285 88q114 0 178 -41v-242q-48 29 -123 29q-65 0 -103 -40.5t-38 -115.5v-28h211v-244h-211v-762h-346v762h-127z" />
<glyph unicode="g" horiz-adv-x="1165" d="M14 -150q0 85 60.5 162t183.5 103q-56 13 -86.5 45.5t-30.5 72.5q0 43 43 82.5t101 46.5q-87 36 -137 111t-50 180q0 158 129.5 255.5t321.5 97.5h559v-244h-76q-77 0 -106 6q41 -23 65 -67t27 -89v-14q0 -123 -92 -197t-258 -100q-133 -19 -164 -25q-37 -5 -37 -36 q0 -13 9.5 -23.5t25.5 -13.5q21 -3 284 -33q157 -17 242.5 -90t85.5 -184q0 -11 -2 -17q-8 -152 -161.5 -249t-389.5 -97q-271 0 -409 84t-138 233zM344 -139q0 -52 57.5 -82.5t159.5 -30.5q101 0 162 31t61 82q0 52 -60.5 82t-162.5 30q-104 0 -160.5 -29.5t-56.5 -82.5z M422 637q0 -70 36.5 -113t100.5 -43q62 0 98.5 43t36.5 113t-36.5 113t-98.5 43q-64 0 -100.5 -43t-36.5 -113z" />
<glyph unicode="h" horiz-adv-x="1220" d="M117 0v1434h344v-543q53 71 132.5 106t164.5 35q346 0 346 -395v-637h-346v637q0 74 -39 113q-30 30 -86 30q-52 0 -97.5 -28.5t-74.5 -79.5v-672h-344z" />
<glyph unicode="i" horiz-adv-x="608" d="M123 1274q0 74 53.5 127t126.5 53q75 0 128.5 -53t53.5 -127q0 -75 -53.5 -128.5t-128.5 -53.5q-74 0 -127 53.5t-53 128.5zM131 0v1006h344v-1006h-344z" />
<glyph unicode="j" horiz-adv-x="595" d="M-82 -256q66 7 109 28t64 56.5t28.5 73t7.5 90.5v1012l344 2v-1002q0 -424 -385 -477zM117 1274q0 74 53.5 127t128.5 53q73 0 126.5 -53t53.5 -127q0 -75 -53 -128.5t-127 -53.5q-75 0 -128.5 53.5t-53.5 128.5z" />
<glyph unicode="k" horiz-adv-x="1173" d="M117 -2v1436h344v-783l303 355h407l-405 -437l434 -571h-430l-309 455v-455h-344z" />
<glyph unicode="l" horiz-adv-x="577" d="M117 0v1434h344v-1434h-344z" />
<glyph unicode="m" horiz-adv-x="1822" d="M117 0v1004l317 2l4 -138q52 84 130.5 124t170.5 40q235 0 308 -182q105 182 315 182q344 0 344 -397v-635h-344v637q0 78 -35 111q-32 32 -86 32q-102 0 -158 -108v-37v-635h-344v637q0 79 -34 111q-32 32 -87 32q-98 0 -157 -106v-674h-344z" />
<glyph unicode="n" horiz-adv-x="1220" d="M117 0v1006h317l6 -142q50 90 136.5 134t183.5 44q344 0 344 -397v-645h-344v639q0 74 -39 113q-32 32 -86 32q-52 0 -98.5 -30.5t-75.5 -83.5v-670h-344z" />
<glyph unicode="o" horiz-adv-x="1251" d="M55 502q0 158 75 280t204 187t291 65q251 0 411 -145t160 -387q0 -107 -37.5 -202.5t-107.5 -169t-180.5 -116.5t-247.5 -43q-162 0 -290.5 65t-203 186.5t-74.5 279.5zM412 502q0 -118 59.5 -193.5t153.5 -75.5q95 0 155 75t60 194t-60 193.5t-155 74.5 q-94 0 -153.5 -75t-59.5 -193z" />
<glyph unicode="p" horiz-adv-x="1214" d="M117 -446v1452h315l2 -86q114 102 277 112h26q80 0 153 -32t134.5 -94t98 -166.5t36.5 -237.5q0 -117 -39 -217t-103.5 -166.5t-148.5 -105t-174 -40.5q-6 -2 -20 -2q-118 0 -213 45v-462h-344zM461 250q61 -25 123 -25h16q95 5 149 78t54 199v2q0 128 -50 200t-145 72 q-72 0 -147 -55v-471z" />
<glyph unicode="q" horiz-adv-x="1241" d="M55 483q0 124 46.5 231t125.5 183q76 72 163 103.5t198 31.5q74 0 139.5 -26t103.5 -70l19 70h274v-1452h-344v503q-54 -42 -125 -64t-137 -22q-201 0 -317 111q-146 137 -146 401zM412 498q0 -137 52.5 -210t147.5 -73h4q44 0 88.5 19t75.5 55v426q-57 63 -149 63 q-98 0 -158.5 -76t-60.5 -204z" />
<glyph unicode="r" horiz-adv-x="872" d="M117 0v1006h317l2 -123q40 68 104 106.5t140 38.5q124 0 199 -67l-66 -250q-57 43 -139 43q-4 0 -13.5 -1t-13.5 -1q-87 -8 -136.5 -70t-49.5 -178v-504h-344z" />
<glyph unicode="s" horiz-adv-x="878" d="M76 709q0 19 4 59q15 88 79 150t149.5 89t183.5 27q101 0 180 -18t119 -45v-254q-104 69 -244 69l-10 2q-53 0 -85.5 -15.5t-37.5 -37.5v-12q0 -27 25 -43.5t85 -40.5q93 -36 164 -70q26 -12 48.5 -29.5t47.5 -46.5t39.5 -74t14.5 -100q0 -5 -1 -16.5t-1 -17.5 q-12 -142 -129.5 -228t-296.5 -86q-205 0 -326 78v289q118 -100 274 -113h31q55 0 84 19t29 53v4q1 30 -24 50t-85 44q-137 53 -172 72q-145 76 -145 242z" />
<glyph unicode="t" horiz-adv-x="806" d="M-6 762v98l479 443v-297h291v-244h-291v-397q0 -111 92 -127q14 -2 43 -2q102 0 178 59v-250q-109 -70 -292 -70q-172 0 -269.5 91t-97.5 258l2 438h-135z" />
<glyph unicode="u" horiz-adv-x="1222" d="M117 373v301v332h344v-629q0 -72 39 -113q36 -31 88 -31t98 30t74 83v660h346v-1006h-324l-4 113q-67 -65 -154.5 -100.5t-168.5 -35.5q-177 0 -257.5 101.5t-80.5 294.5z" />
<glyph unicode="v" horiz-adv-x="1120" d="M-4 1006h373l159 -514q8 -26 22 -86.5t15 -79.5q1 20 15 80.5t22 85.5l174 514h348l-387 -1006h-350z" />
<glyph unicode="w" horiz-adv-x="1703" d="M-4 1006h358l133 -494q32 -129 35 -170q3 20 18.5 87.5t20.5 84.5l158 492h287l153 -496q5 -14 20.5 -81t16.5 -87q0 5 37 170l139 494h336l-358 -1006h-324l-145 440q-8 23 -22 86.5t-15 85.5q-1 -22 -15 -83t-24 -91l-129 -438h-320z" />
<glyph unicode="x" horiz-adv-x="1193" d="M-6 0l381 528l-346 478h428l168 -248l153 248h389l-348 -480l381 -526h-424l-190 276l-183 -276h-409z" />
<glyph unicode="y" horiz-adv-x="1196" d="M-6 1006h397l172 -435q28 -69 55 -182q19 80 58 182l166 435h360l-606 -1452h-383l217 489z" />
<glyph unicode="z" horiz-adv-x="1005" d="M61 0v117l385 645h-368v244h846v-119l-383 -641h403v-246h-883z" />
<glyph unicode="{" horiz-adv-x="743" d="M55 623v184q90 0 127 32t51 93q9 44 9 106q0 37 -4.5 130t-4.5 143v8q0 69 15.5 125.5t38.5 92t57 62.5t63.5 41t64 22.5t52 10t35.5 2.5q12 2 33 2q68 0 137 -18v-211q-24 6 -55 6q-64 0 -96 -35q-19 -23 -26 -52.5t-7 -86.5q0 -65 6 -197v-34q0 -50 -6.5 -96.5 t-22.5 -99t-50.5 -89.5t-84.5 -49q50 -12 84.5 -49t50.5 -89.5t22.5 -99t6.5 -96.5v-35q-6 -132 -6 -196q0 -57 7 -87t26 -53q32 -35 96 -35q31 0 55 9v-213q-73 -19 -137 -19q-21 0 -33 2q-18 1 -35.5 2.5t-52 10.5t-64 22.5t-63.5 40.5t-57 63t-38.5 92.5t-15.5 125.5v8 q0 50 4.5 142.5t4.5 129.5q0 63 -9 107q-14 61 -51 93t-127 32z" />
<glyph unicode="|" horiz-adv-x="497" d="M123 -25v1563h252v-1563h-252z" />
<glyph unicode="}" horiz-adv-x="743" d="M14 -16q24 -9 56 -9q64 0 96 35q19 23 26 53t7 87q0 64 -6 196v35q0 50 6 96.5t22 99t50.5 89.5t84.5 49q-50 12 -84.5 49t-50.5 89.5t-22 99t-6 96.5v34q6 132 6 197q0 57 -7 86.5t-26 52.5q-32 35 -96 35q-32 0 -56 -6v211q69 18 138 18q20 0 32 -2q18 -1 35.5 -2.5 t52 -10t64 -22.5t63.5 -41t57 -62.5t38.5 -92t15.5 -125.5v-8q0 -50 -4 -143t-4 -130q0 -67 8 -106q14 -61 51 -93t127 -32v-184q-90 0 -127 -32t-51 -93q-8 -39 -8 -107q0 -37 4 -129.5t4 -142.5v-8q0 -69 -15.5 -125.5t-38.5 -92.5t-57 -63t-63.5 -40.5t-64 -22.5 t-52 -10.5t-35.5 -2.5q-12 -2 -32 -2q-65 0 -138 19v213z" />
<glyph unicode="~" horiz-adv-x="944" d="M76 559q0 54 11 100.5t35.5 90.5t72 70.5t114.5 29.5h15q87 0 245 -66q27 -10 49 -10q54 0 54 55q0 13 -2 21h196q2 -20 2 -64q0 -54 -10.5 -100.5t-35 -90t-72.5 -70t-115 -29.5h-14q-91 0 -246 65q-27 10 -49 10q-54 0 -54 -55q0 -3 1 -9.5t1 -10.5h-194q-4 40 -4 63z " />
<glyph />
<glyph unicode="&#xa1;" horiz-adv-x="804" d="M205 -401l53 1017h291l51 -1017h-395zM227 881q0 72 53 124t126 52q72 0 124 -52t52 -124q0 -73 -52 -126t-124 -53q-74 0 -126.5 53t-52.5 126z" />
<glyph unicode="&#xa2;" horiz-adv-x="1140" d="M137 502q0 230 156 379q110 101 246 131v200h272v-186q119 -16 193 -65v-269q-99 86 -242 86q-114 0 -190 -74.5t-76 -201.5t76 -202t190 -75q143 0 242 86v-268q-76 -50 -193 -66v-176h-272v191q-136 30 -246 131q-156 149 -156 379z" />
<glyph unicode="&#xa3;" horiz-adv-x="1200" d="M86 0v166q103 36 168 134t65 230q0 34 -2 50h-223v251h178q-18 95 -18 189q0 79 34 155.5t97.5 140t165.5 103t227 39.5q140 0 218.5 -26.5t133.5 -69.5l-43 -260q-65 50 -116.5 73t-124.5 23q-13 0 -21 -2q-101 -4 -155 -65t-54 -146q0 -60 23 -154h369v-251h-332 q-4 -198 -119 -322h578v-258h-1049z" />
<glyph unicode="&#xa4;" horiz-adv-x="1454" d="M14 449v194h168q-2 27 -2 80v14h-166v195h191q63 253 266 394.5t494 141.5q245 0 393 -96l-96 -244q-108 62 -244 62q-154 0 -263 -67.5t-161 -190.5h590l-74 -195h-555q-2 -4 -2 -14q0 -43 6 -80h514l-76 -194h-370q59 -93 159.5 -144t231.5 -51q147 0 260 61v-286 q-128 -54 -313 -54q-271 0 -467.5 125t-274.5 349h-209z" />
<glyph unicode="&#xa5;" horiz-adv-x="1472" d="M4 1434h430l316 -473l323 473h395l-393 -521h252v-208h-409v-113h409v-209h-409v-383h-363v383h-401v209h401v113h-401v208h243z" />
<glyph unicode="&#xa6;" horiz-adv-x="491" d="M123 -25v578h246v-578h-246zM123 958v578h246v-578h-246z" />
<glyph unicode="&#xa7;" horiz-adv-x="1058" d="M137 635v2v6v12q1 94 60 157t129 81q-148 76 -148 246q0 86 40 151.5t102.5 100t126 51t124.5 16.5q94 0 169.5 -20.5t117.5 -53.5v-251q-105 102 -254 102q-63 0 -96.5 -25.5t-36.5 -64.5v-8q0 -73 100 -109q112 -42 179 -70q30 -14 49 -24.5t49.5 -33.5t48 -47 t31.5 -63t14 -85v-3v-6v-12q-1 -96 -61 -163.5t-129 -84.5q149 -78 149 -246q0 -70 -26 -126.5t-66.5 -92t-95 -59.5t-107.5 -33.5t-106 -9.5q-93 0 -171.5 21.5t-121.5 52.5v254q114 -105 260 -105q65 0 101.5 26.5t39.5 63.5v11q0 69 -100 108q-151 57 -178 70 q-193 86 -193 264zM399 674q0 -12 2 -22.5t7.5 -19.5t10 -16t14.5 -13.5t15 -10.5t17 -9.5t16 -7.5t17 -7t14 -5q11 -3 31.5 -10t34.5 -12q40 7 70.5 32t31.5 70v6v4q0 26 -10.5 46t-32 33t-34 18.5t-36.5 13.5q-10 4 -65 24q-39 -8 -70 -33t-31 -69l-2 -8v-2v-2z" />
<glyph unicode="&#xa8;" horiz-adv-x="727" d="M20 1262q0 58 40.5 98.5t99.5 40.5q58 0 98.5 -40.5t40.5 -98.5q0 -57 -40.5 -98.5t-98.5 -41.5t-99 41.5t-41 98.5zM428 1262q0 58 40 98.5t99 40.5q57 0 98.5 -40.5t41.5 -98.5q0 -57 -41.5 -98.5t-98.5 -41.5q-58 0 -98.5 41.5t-40.5 98.5z" />
<glyph unicode="&#xa9;" horiz-adv-x="1662" d="M76 715q0 152 59.5 290t160.5 238.5t241 159.5t294 59t294 -59t241 -159.5t161 -238.5t60 -290q0 -153 -60 -291.5t-161 -239t-241 -160t-294 -59.5q-206 0 -379.5 100.5t-274.5 273t-101 376.5zM233 715q0 -125 47.5 -238t127.5 -195.5t190.5 -131t232.5 -48.5 q162 0 300 82t218.5 223.5t80.5 307.5q0 165 -80.5 305.5t-218.5 222.5t-300 82t-300 -82t-218 -222.5t-80 -305.5zM395 727q0 135 64 236.5t172 153.5t243 52q164 0 261 -69v-180q-40 37 -100.5 60.5t-127.5 23.5q-123 0 -203.5 -76.5t-80.5 -200.5t80.5 -201t203.5 -77 q67 0 127 23.5t101 59.5v-180q-94 -67 -261 -67q-135 0 -243 52t-172 153.5t-64 236.5z" />
<glyph unicode="&#xaa;" horiz-adv-x="802" d="M35 891q0 68 34.5 120t93 82.5t127 47t146.5 18.5v31q0 41 -28 62.5t-76 21.5q-122 0 -242 -92v190q129 80 301 80q49 0 88.5 -6.5t79 -25.5t66 -50t43 -84.5t16.5 -124.5v-268q0 -35 18 -41q8 -4 15 -4q25 0 51 16v-135q-66 -47 -166 -47q-107 0 -137 78 q-31 -40 -85 -59t-104 -19q-47 0 -87 10t-76 32.5t-57 65t-21 101.5zM281 924q0 -35 21.5 -53.5t49.5 -18.5q61 0 84 47v135h-4q-63 0 -107 -29.5t-44 -80.5z" />
<glyph unicode="&#xab;" horiz-adv-x="1232" d="M76 481l289 482h297l-261 -482l261 -481h-297zM530 481l291 482h295l-260 -482l260 -481h-295z" />
<glyph unicode="&#xac;" horiz-adv-x="1206" d="M76 590v241h1054v-651h-264v410h-790z" />
<glyph unicode="&#xad;" horiz-adv-x="782" d="M72 473v266h639v-266h-639z" />
<glyph unicode="&#xae;" horiz-adv-x="1302" d="M76 893q0 155 77 286t209.5 207t288.5 76t288.5 -76t210 -207t77.5 -286q0 -154 -77.5 -285t-210 -207.5t-288.5 -76.5t-288.5 76.5t-209.5 207.5t-77 285zM195 893q0 -192 133.5 -328.5t322.5 -136.5q123 0 228 62.5t166 169.5t61 233t-61 233t-166 169.5t-228 62.5 q-189 0 -322.5 -136.5t-133.5 -328.5zM436 578v643h242q93 -2 146 -51.5t53 -135.5q0 -50 -25 -89.5t-74 -57.5q35 -24 78 -119q36 -83 72 -190h-162q-15 47 -49 135q-19 46 -34.5 73.5t-29 39t-22 14t-23.5 2.5h-14v-264h-158zM594 944h39q41 0 64.5 22.5t23.5 61.5 q0 40 -23.5 62t-64.5 22h-39v-168z" />
<glyph unicode="&#xaf;" horiz-adv-x="595" d="M20 1159v187h555v-187h-555z" />
<glyph unicode="&#xb0;" horiz-adv-x="851" d="M76 1126q0 142 99.5 238t250.5 96q150 0 250 -96t100 -238t-100 -237.5t-250 -95.5q-151 0 -250.5 95.5t-99.5 237.5zM276 1126q0 -68 44 -113.5t106 -45.5t104.5 45.5t42.5 113.5t-42.5 113t-104.5 45t-106 -45t-44 -113z" />
<glyph unicode="&#xb1;" horiz-adv-x="1200" d="M76 0v236h1048v-236h-1048zM76 651v234h395v409h258v-409h395v-234h-395v-321h-258v321h-395z" />
<glyph unicode="&#xb2;" horiz-adv-x="663" d="M43 612v93q75 71 151 159t113 152q49 85 49 153q0 51 -30.5 79t-83.5 28l-6 2h-3q-89 0 -176 -96l-14 182q102 88 258 88h18q130 -5 202.5 -75.5t72.5 -194.5q0 -93 -51.5 -186t-171.5 -216h243v-168h-571z" />
<glyph unicode="&#xb3;" horiz-adv-x="632" d="M43 649l16 191q82 -74 179 -74q51 0 82.5 26.5t31.5 67.5q0 96 -147 96h-53v160h57q54 0 93.5 20t39.5 62q0 27 -12 45t-31.5 25t-33 9.5t-27.5 2.5q-75 0 -156 -63l-23 169q91 64 238 64q50 0 95.5 -12.5t85 -37.5t63.5 -70t24 -105q0 -72 -31.5 -116t-70.5 -65 q121 -54 121 -186q0 -43 -18 -86.5t-54 -84.5t-101 -67t-149 -26q-139 0 -219 55z" />
<glyph unicode="&#xb4;" horiz-adv-x="438" d="M20 1116l142 297h256l-236 -297h-162z" />
<glyph unicode="&#xb5;" horiz-adv-x="1263" d="M137 -344v1348l346 2v-631q0 -74 39 -113q31 -31 86 -31q52 0 98.5 30t75.5 83v660h344v-1004h-317l-10 106q-50 -62 -119 -94t-143 -32q-45 0 -76 8l4 -332h-328z" />
<glyph unicode="&#xb6;" horiz-adv-x="1069" d="M14 983q0 195 122.5 323t309.5 128h500v-1522h-219v1321h-152v-1321h-219v633q-154 31 -248 150.5t-94 287.5z" />
<glyph unicode="&#xb7;" horiz-adv-x="630" d="M137 725q0 73 52.5 125.5t125.5 52.5q74 0 126.5 -52.5t52.5 -125.5t-52.5 -125.5t-126.5 -52.5q-73 0 -125.5 52.5t-52.5 125.5z" />
<glyph unicode="&#xb8;" horiz-adv-x="403" d="M20 -207q49 -35 105 -35q29 0 47 12t18 35q0 19 -16.5 30t-40.5 11q-20 0 -47 -10l-29 29l66 147h158l-43 -88q67 -5 106 -37.5t39 -93.5q0 -3 -1 -9t-1 -9q-5 -54 -42.5 -90t-83.5 -49t-97 -13q-81 0 -138 29v141z" />
<glyph unicode="&#xb9;" horiz-adv-x="536" d="M43 1180v163l276 89h109v-822h-227v619z" />
<glyph unicode="&#xba;" horiz-adv-x="899" d="M35 1063q0 173 117.5 280t296.5 107q183 0 299 -105.5t116 -281.5q0 -78 -27.5 -147t-78.5 -122.5t-131.5 -84.5t-180.5 -31q-179 0 -295 106t-116 279zM301 1063q0 -83 41 -134.5t107 -51.5t107.5 51.5t41.5 134.5t-41.5 135.5t-107.5 52.5t-107 -52.5t-41 -135.5z" />
<glyph unicode="&#xbb;" horiz-adv-x="1232" d="M117 0l258 481l-258 482h295l290 -482l-290 -481h-295zM571 0l260 481l-260 482h297l289 -482l-289 -481h-297z" />
<glyph unicode="&#xbc;" horiz-adv-x="1447" d="M43 1182v164l276 88h109v-822h-227v619zM150 0l827 1432h235l-827 -1432h-235zM737 207v125l336 489h219v-452h101v-162h-101v-207h-221v207h-334zM938 358h147v154q0 33 5 68q-8 -21 -29 -54l-94 -131q-12 -20 -29 -37z" />
<glyph unicode="&#xbd;" horiz-adv-x="1536" d="M43 1180v163l276 89h109v-822h-227v619zM152 0l825 1432h235l-825 -1432h-235zM897 0v92q75 71 151 159t113 152q49 85 49 154q0 51 -30 79t-84 28h-4h-5q-93 0 -174 -97l-16 185q106 88 258 88h19q129 -5 201.5 -76t72.5 -195q0 -92 -51.5 -185.5t-171.5 -217.5h243 v-166h-571z" />
<glyph unicode="&#xbe;" horiz-adv-x="1490" d="M43 649l16 191q82 -74 179 -74q51 0 82.5 26.5t31.5 67.5q0 96 -147 96h-53v160h57q54 0 93.5 20t39.5 62q0 27 -12 45t-31.5 25t-33 9.5t-27.5 2.5q-75 0 -156 -63l-23 169q91 64 238 64q50 0 95.5 -12.5t85 -37.5t63.5 -70t24 -105q0 -72 -31.5 -116t-70.5 -65 q121 -54 121 -186q0 -43 -18 -86.5t-54 -84.5t-101 -67t-149 -26q-139 0 -219 55zM217 0l825 1432h236l-823 -1432h-238zM778 207v125l336 489h219v-452h101v-162h-101v-207h-221v207h-334zM979 358h147v154q0 40 4 68q-10 -26 -28 -54l-94 -131q-12 -20 -29 -37z" />
<glyph unicode="&#xbf;" horiz-adv-x="888" d="M66 -74q0 43 5.5 81.5t19 74.5t24 61t35 59.5t36 50t41.5 52t39 47.5q54 66 74 107t20 106q0 31 -2 49h287q10 -65 10 -108q0 -178 -129 -316q-102 -114 -102 -202q0 -4 1 -12t1 -11q7 -58 48.5 -89.5t103.5 -31.5q110 0 219 95l26 -248q-143 -119 -362 -119 q-183 0 -289 98t-106 256zM313 879q0 73 52 125.5t124 52.5q74 0 126.5 -52.5t52.5 -125.5t-52.5 -125t-126.5 -52q-72 0 -124 52t-52 125z" />
<glyph unicode="&#xc0;" horiz-adv-x="1540" d="M-2 0l571 1434h383l590 -1434h-401l-119 307h-555l-111 -307h-358zM553 551h377l-160 414q-24 61 -33 120h-4q-8 -53 -31 -120zM690 1526l141 297h240l-235 -297h-146z" />
<glyph unicode="&#xc1;" horiz-adv-x="1540" d="M-2 0l571 1434h383l590 -1434h-401l-119 307h-555l-111 -307h-358zM553 551h377l-160 414q-24 61 -33 120h-4q-8 -53 -31 -120zM690 1526l141 297h240l-235 -297h-146z" />
<glyph unicode="&#xc2;" horiz-adv-x="1540" d="M-2 0l571 1434h383l590 -1434h-401l-119 307h-555l-111 -307h-358zM444 1522l230 311h166l235 -311h-201l-118 161l-115 -161h-197zM553 551h377l-160 414q-24 61 -33 120h-4q-8 -53 -31 -120z" />
<glyph unicode="&#xc3;" horiz-adv-x="1540" d="M-2 0l571 1434h383l590 -1434h-401l-119 307h-555l-111 -307h-358zM457 1556q0 43 8.5 80t28 71.5t57 55t90.5 21.5h10l4 2h2q32 0 64.5 -11t70.5 -31.5t44 -23.5q24 -8 38 -8q18 0 29.5 12.5t11.5 36.5v23h154q0 -6 1 -23t1 -26q0 -42 -8.5 -79t-28 -72t-57.5 -55.5 t-90 -21.5h-10h-5h-2q-32 0 -64 10.5t-70.5 31t-43.5 22.5q-24 8 -39 8q-18 0 -29.5 -12.5t-11.5 -34.5v-25h-153q0 7 -1 24t-1 25zM553 551h377l-160 414q-24 61 -33 120h-4q-8 -53 -31 -120z" />
<glyph unicode="&#xc4;" horiz-adv-x="1540" d="M-2 0l571 1434h383l590 -1434h-401l-119 307h-555l-111 -307h-358zM418 1647q0 59 40 99t99 40q57 0 98 -40.5t41 -98.5t-41 -99t-98 -41q-58 0 -98.5 40.5t-40.5 99.5zM553 551h377l-160 414q-24 61 -33 120h-4q-8 -53 -31 -120zM823 1647q0 58 41.5 98.5t98.5 40.5 q59 0 99 -40t40 -99t-40.5 -99.5t-98.5 -40.5q-57 0 -98.5 41t-41.5 99z" />
<glyph unicode="&#xc5;" horiz-adv-x="1540" d="M-2 0l571 1434h383l590 -1434h-401l-119 307h-555l-111 -307h-358zM553 551h377l-160 414q-24 61 -33 120h-4q-8 -53 -31 -120zM557 1679q0 83 60 139t145 56q84 0 143.5 -56.5t59.5 -138.5q0 -81 -59.5 -137.5t-143.5 -56.5q-85 0 -145 56.5t-60 137.5zM696 1679 q0 -28 19 -47.5t47 -19.5q26 0 44.5 19.5t18.5 47.5t-18.5 48t-44.5 20q-28 0 -47 -20t-19 -48z" />
<glyph unicode="&#xc6;" horiz-adv-x="1931" d="M-2 -2l846 1436h999v-258h-522v-324h504v-252h-504v-342h539v-258h-910v319h-389l-174 -319zM692 561h258v281q0 111 11 235l-5 2q-8 -26 -46 -105.5t-60 -119.5z" />
<glyph unicode="&#xc7;" horiz-adv-x="1394" d="M76 721q0 171 64 312.5t175.5 235.5t262.5 145.5t325 51.5q286 0 447 -114v-305q-69 62 -172 101.5t-220 39.5q-212 0 -350.5 -129t-138.5 -338q0 -210 138.5 -339.5t350.5 -129.5q116 0 219 39.5t173 101.5v-303q-150 -106 -394 -115l-38 -81q66 -5 104.5 -38t38.5 -94 v-18q-6 -54 -43.5 -90t-83 -49t-96.5 -13q-81 0 -140 29v143q47 -36 107 -36q28 0 45.5 12.5t17.5 34.5q0 20 -15.5 30.5t-41.5 10.5t-45 -11l-31 29l66 146q-209 20 -371.5 112t-258 255t-95.5 374z" />
<glyph unicode="&#xc8;" horiz-adv-x="1155" d="M143 0v1434h924v-258h-553v-324h533v-252h-533v-342h569v-258h-940zM313 1823h240l141 -297h-145z" />
<glyph unicode="&#xc9;" horiz-adv-x="1155" d="M143 0v1434h924v-258h-553v-324h533v-252h-533v-342h569v-258h-940zM537 1526l141 297h240l-238 -297h-143z" />
<glyph unicode="&#xca;" horiz-adv-x="1155" d="M143 0v1434h924v-258h-553v-324h533v-252h-533v-342h569v-258h-940zM293 1522l229 311h166l236 -311h-201l-119 159l-115 -159h-196z" />
<glyph unicode="&#xcb;" horiz-adv-x="1155" d="M143 0v1434h924v-258h-553v-324h533v-252h-533v-342h569v-258h-940zM250 1647q0 59 40 99t99 40q57 0 98 -40.5t41 -98.5t-41 -99t-98 -41q-58 0 -98.5 40.5t-40.5 99.5zM655 1647q0 58 41.5 98.5t98.5 40.5q59 0 100 -40.5t41 -98.5t-41 -99t-100 -41q-57 0 -98.5 41 t-41.5 99z" />
<glyph unicode="&#xcc;" horiz-adv-x="657" d="M33 1823h239l142 -297h-146zM143 0v1434h371v-1434h-371z" />
<glyph unicode="&#xcd;" horiz-adv-x="657" d="M143 0v1434h371v-1434h-371zM258 1526l141 297h240l-236 -297h-145z" />
<glyph unicode="&#xce;" horiz-adv-x="657" d="M14 1524l230 309h166l235 -309h-201l-118 159l-115 -159h-197zM143 0v1434h371v-1434h-371z" />
<glyph unicode="&#xcf;" horiz-adv-x="657" d="M-10 1647q0 59 40 99t99 40t99 -40t40 -99t-40.5 -99.5t-98.5 -40.5t-98.5 40.5t-40.5 99.5zM143 0v1434h371v-1434h-371zM397 1647q0 58 40.5 98.5t99.5 40.5q57 0 98 -40.5t41 -98.5t-41 -99t-98 -41q-59 0 -99.5 40.5t-40.5 99.5z" />
<glyph unicode="&#xd0;" horiz-adv-x="1591" d="M4 590v219h143v625h633q142 0 261.5 -38.5t204 -106t143.5 -158.5t87.5 -195.5t28.5 -218.5t-28.5 -218.5t-87.5 -195.5t-143.5 -158.5t-204 -106t-261.5 -38.5h-633v590h-143zM518 268h146q98 0 175.5 26t127 68.5t82 102t46 121.5t13.5 131q0 70 -13.5 133t-46 123 t-82 103t-127 69t-175.5 26h-146v-362h285v-219h-285v-322z" />
<glyph unicode="&#xd1;" horiz-adv-x="1671" d="M143 0v1434h330l705 -842v842h350v-1434h-293l-741 879v-879h-351zM518 1556q0 43 8 80t27 71.5t56.5 55t90.5 21.5h11l6 2h2q31 0 63.5 -11.5t68.5 -31t46 -23.5q24 -8 37 -8q43 0 43 49q0 19 -2 23h153q2 -14 2 -49q0 -42 -8.5 -79t-28 -72t-57.5 -55.5t-90 -21.5h-10 h-4h-2q-31 0 -63 11t-69.5 30.5t-45.5 22.5q-24 8 -39 8q-18 0 -29.5 -12.5t-11.5 -34.5q0 -19 2 -25h-154q-2 14 -2 49z" />
<glyph unicode="&#xd2;" horiz-adv-x="1789" d="M76 715q0 216 104.5 388.5t291.5 269.5t421 97q179 0 332 -56t260.5 -155t168 -239.5t60.5 -304.5q0 -111 -30.5 -217.5t-96.5 -204.5t-161 -172t-233.5 -118t-303.5 -44q-233 0 -419 97.5t-290 270.5t-104 388zM473 715q0 -201 118 -334t304 -133q188 0 305 131.5 t117 335.5t-117 335.5t-305 131.5q-189 0 -305.5 -131.5t-116.5 -335.5zM598 1823h238l141 -297h-143z" />
<glyph unicode="&#xd3;" horiz-adv-x="1789" d="M76 715q0 216 104.5 388.5t291.5 269.5t421 97q179 0 332 -56t260.5 -155t168 -239.5t60.5 -304.5q0 -111 -30.5 -217.5t-96.5 -204.5t-161 -172t-233.5 -118t-303.5 -44q-233 0 -419 97.5t-290 270.5t-104 388zM473 715q0 -201 118 -334t304 -133q188 0 305 131.5 t117 335.5t-117 335.5t-305 131.5q-189 0 -305.5 -131.5t-116.5 -335.5zM842 1526l141 297h240l-238 -297h-143z" />
<glyph unicode="&#xd4;" horiz-adv-x="1789" d="M76 715q0 216 104.5 388.5t291.5 269.5t421 97q179 0 332 -56t260.5 -155t168 -239.5t60.5 -304.5q0 -111 -30.5 -217.5t-96.5 -204.5t-161 -172t-233.5 -118t-303.5 -44q-233 0 -419 97.5t-290 270.5t-104 388zM473 715q0 -201 118 -334t304 -133q188 0 305 131.5 t117 335.5t-117 335.5t-305 131.5q-189 0 -305.5 -131.5t-116.5 -335.5zM592 1522l233 323h156l240 -323h-195l-125 131l-117 -131h-192z" />
<glyph unicode="&#xd5;" horiz-adv-x="1789" d="M76 707q0 216 104.5 388.5t291.5 269.5t421 97q179 0 332 -56t260.5 -155t168 -239.5t60.5 -304.5q0 -112 -30.5 -219t-96.5 -205t-161 -171.5t-233.5 -117t-303.5 -43.5q-233 0 -419 97t-290 270t-104 389zM473 707q0 -201 118 -334t304 -133q188 0 305 131.5t117 335.5 t-117 335.5t-305 131.5q-189 0 -305.5 -131.5t-116.5 -335.5zM616 1556q0 43 8.5 80t28.5 71.5t57.5 55t90.5 21.5h10l4 2h2q66 0 187 -53q27 -9 38 -9q41 0 41 45v15h154q0 -6 1 -23t1 -26q0 -42 -8.5 -79t-28 -72t-57.5 -55.5t-90 -21.5h-11h-6h-2q-13 0 -27 1.5 t-25.5 3.5t-26.5 6.5t-24 7.5t-24.5 9t-21 8t-20.5 8.5t-17 7.5q-24 8 -37 8q-43 0 -43 -45q0 -2 1 -7t1 -8h-154q-2 14 -2 49z" />
<glyph unicode="&#xd6;" horiz-adv-x="1789" d="M76 715q0 216 104.5 388.5t291.5 269.5t421 97q179 0 332 -56t260.5 -155t168 -239.5t60.5 -304.5q0 -111 -30.5 -217.5t-96.5 -204.5t-161 -172t-233.5 -118t-303.5 -44q-233 0 -419 97.5t-290 270.5t-104 388zM473 715q0 -201 118 -334t304 -133q188 0 305 131.5 t117 335.5t-117 335.5t-305 131.5q-189 0 -305.5 -131.5t-116.5 -335.5zM559 1647q0 59 40.5 99t98.5 40q59 0 99.5 -40.5t40.5 -98.5q0 -59 -41 -99.5t-99 -40.5t-98.5 40.5t-40.5 99.5zM967 1647q0 59 40.5 99t98.5 40q57 0 98 -40.5t41 -98.5t-41 -99t-98 -41 q-58 0 -98.5 40.5t-40.5 99.5z" />
<glyph unicode="&#xd7;" horiz-adv-x="1298" d="M96 156l371 374l-371 375l176 187l377 -379l377 379l176 -187l-373 -375l373 -374l-176 -187l-377 379l-377 -379z" />
<glyph unicode="&#xd8;" horiz-adv-x="1755" d="M59 717q0 215 105 387.5t292 269t421 96.5q220 0 399 -81l108 133l181 -136l-101 -122q111 -101 171.5 -241.5t60.5 -305.5q0 -111 -30.5 -217.5t-96.5 -204t-160.5 -171t-233 -117.5t-303.5 -44q-217 0 -393 84l-125 -153l-180 135l117 143q-111 103 -171.5 242.5 t-60.5 302.5zM455 717q0 -143 65 -260l551 680q-83 47 -194 47q-188 0 -305 -131.5t-117 -335.5zM682 297q86 -47 195 -47q188 0 305.5 131.5t117.5 335.5q0 148 -65 262z" />
<glyph unicode="&#xd9;" horiz-adv-x="1617" d="M143 580v854h371v-863q0 -58 15 -111t48 -101t93.5 -76.5t142.5 -28.5q137 0 218 83t81 234v863h363v-854q0 -294 -176 -453.5t-490 -159.5t-489.5 159.5t-176.5 453.5zM500 1823h239l142 -297h-146z" />
<glyph unicode="&#xda;" horiz-adv-x="1617" d="M143 580v854h371v-863q0 -58 15 -111t48 -101t93.5 -76.5t142.5 -28.5q137 0 218 83t81 234v863h363v-854q0 -294 -176 -453.5t-490 -159.5t-489.5 159.5t-176.5 453.5zM725 1526l141 297h240l-236 -297h-145z" />
<glyph unicode="&#xdb;" horiz-adv-x="1617" d="M143 580v854h371v-863q0 -58 15 -111t48 -101t93.5 -76.5t142.5 -28.5q137 0 218 83t81 234v863h363v-854q0 -294 -176 -453.5t-490 -159.5t-489.5 159.5t-176.5 453.5zM494 1522l229 311h166l235 -311h-200l-119 161l-115 -161h-196z" />
<glyph unicode="&#xdc;" horiz-adv-x="1617" d="M143 580v854h371v-863q0 -58 15 -111t48 -101t93.5 -76.5t142.5 -28.5q137 0 218 83t81 234v863h363v-854q0 -294 -176 -453.5t-490 -159.5t-489.5 159.5t-176.5 453.5zM461 1647q0 59 40.5 99t98.5 40q57 0 98 -40.5t41 -98.5t-41 -99t-98 -41q-58 0 -98.5 40.5 t-40.5 99.5zM866 1647q0 58 41.5 98.5t98.5 40.5q58 0 98.5 -40t40.5 -99t-40.5 -99.5t-98.5 -40.5q-57 0 -98.5 41t-41.5 99z" />
<glyph unicode="&#xdd;" horiz-adv-x="1490" d="M-4 1434h432l344 -531l328 531h395l-565 -822v-612h-371v602zM678 1526l141 297h240l-236 -297h-145z" />
<glyph unicode="&#xde;" horiz-adv-x="1318" d="M129 0v1434h371v-215h221q234 0 376 -122.5t142 -324.5t-142 -324t-376 -122h-221v-326h-371zM500 571h147q100 0 156.5 52t56.5 145q0 92 -56.5 143.5t-156.5 51.5h-147v-392z" />
<glyph unicode="&#xdf;" horiz-adv-x="1265" d="M117 0v1034q0 99 42.5 179.5t114 131t161.5 77t190 26.5q81 0 153 -13.5t136 -43.5t110 -74.5t73 -110t27 -145.5q0 -95 -40 -170t-119 -107q229 -84 229 -354q0 -194 -129 -321t-322 -127q-101 0 -192 24v242q47 -17 94 -17q88 0 140.5 55.5t52.5 149.5q0 102 -62 158 q-61 55 -184 55q-6 0 -20 -1t-21 -1v242h27q99 0 143 41q43 40 43 117q0 74 -39.5 116.5t-106.5 42.5q-75 0 -116 -48.5t-41 -137.5v-1020h-344z" />
<glyph unicode="&#xe0;" horiz-adv-x="1071" d="M35 260q0 93 49 165.5t131.5 115t178 65t202.5 25.5v41q0 57 -38 85.5t-105 28.5q-176 0 -342 -114v252q74 47 185.5 77.5t238.5 30.5q68 0 121.5 -8.5t108 -34.5t91 -68.5t59.5 -115.5t23 -172v-371q0 -46 25 -55q8 -4 20 -4q37 0 68 22v-186q-48 -33 -111.5 -49.5 t-114.5 -16.5q-147 0 -188 107q-43 -52 -122.5 -79.5t-147.5 -27.5q-50 0 -95 8t-89 29t-76 52.5t-52 82.5t-20 115zM221 1413h252l145 -297h-161zM371 307q0 -51 30 -74.5t70 -23.5q39 0 73 15.5t50 47.5v185q-102 0 -162.5 -40t-60.5 -110z" />
<glyph unicode="&#xe1;" horiz-adv-x="1071" d="M35 260q0 93 49 165.5t131.5 115t178 65t202.5 25.5v41q0 57 -38 85.5t-105 28.5q-176 0 -342 -114v252q74 47 185.5 77.5t238.5 30.5q68 0 121.5 -8.5t108 -34.5t91 -68.5t59.5 -115.5t23 -172v-371q0 -46 25 -55q8 -4 20 -4q37 0 68 22v-186q-48 -33 -111.5 -49.5 t-114.5 -16.5q-147 0 -188 107q-43 -52 -122.5 -79.5t-147.5 -27.5q-50 0 -95 8t-89 29t-76 52.5t-52 82.5t-20 115zM371 307q0 -51 30 -74.5t70 -23.5q39 0 73 15.5t50 47.5v185q-102 0 -162.5 -40t-60.5 -110zM449 1116l141 297h256l-236 -297h-161z" />
<glyph unicode="&#xe2;" horiz-adv-x="1071" d="M35 260q0 93 49 165.5t131.5 115t178 65t202.5 25.5v41q0 57 -38 85.5t-105 28.5q-176 0 -342 -114v252q74 47 185.5 77.5t238.5 30.5q68 0 121.5 -8.5t108 -34.5t91 -68.5t59.5 -115.5t23 -172v-371q0 -46 25 -55q8 -4 20 -4q37 0 68 22v-186q-48 -33 -111.5 -49.5 t-114.5 -16.5q-147 0 -188 107q-43 -52 -122.5 -79.5t-147.5 -27.5q-50 0 -95 8t-89 29t-76 52.5t-52 82.5t-20 115zM219 1102l230 311h165l236 -311h-201l-119 162l-114 -162h-197zM371 307q0 -51 30 -74.5t70 -23.5q39 0 73 15.5t50 47.5v185q-102 0 -162.5 -40 t-60.5 -110z" />
<glyph unicode="&#xe3;" horiz-adv-x="1071" d="M35 260q0 93 49 165.5t131.5 115t178 65t202.5 25.5v41q0 57 -38 85.5t-105 28.5q-176 0 -342 -114v252q74 47 185.5 77.5t238.5 30.5q68 0 121.5 -8.5t108 -34.5t91 -68.5t59.5 -115.5t23 -172v-371q0 -46 25 -55q8 -4 20 -4q37 0 68 22v-186q-48 -33 -111.5 -49.5 t-114.5 -16.5q-147 0 -188 107q-43 -52 -122.5 -79.5t-147.5 -27.5q-50 0 -95 8t-89 29t-76 52.5t-52 82.5t-20 115zM217 1165q0 43 8.5 80t28 72t57 56t90.5 22h11h6h2q31 0 64 -12t67.5 -30t46.5 -22q16 -8 37 -8q19 0 31 12t12 35q0 2 -1 12t-1 13h153q2 -16 2 -49 q0 -43 -8.5 -80t-28 -72t-57 -56t-90.5 -22h-10h-4h-2q-32 0 -64.5 11.5t-68 31t-45.5 23.5q-24 8 -39 8q-18 0 -29.5 -12.5t-11.5 -36.5q0 -19 2 -25h-154q-4 32 -4 49zM371 307q0 -51 30 -74.5t70 -23.5q39 0 73 15.5t50 47.5v185q-102 0 -162.5 -40t-60.5 -110z" />
<glyph unicode="&#xe4;" horiz-adv-x="1071" d="M35 260q0 93 49 165.5t131.5 115t178 65t202.5 25.5v41q0 57 -38 85.5t-105 28.5q-176 0 -342 -114v252q74 47 185.5 77.5t238.5 30.5q68 0 121.5 -8.5t108 -34.5t91 -68.5t59.5 -115.5t23 -172v-371q0 -46 25 -55q8 -4 20 -4q37 0 68 22v-186q-48 -33 -111.5 -49.5 t-114.5 -16.5q-147 0 -188 107q-43 -52 -122.5 -79.5t-147.5 -27.5q-50 0 -95 8t-89 29t-76 52.5t-52 82.5t-20 115zM188 1262q0 58 41.5 98.5t98.5 40.5q58 0 98.5 -40.5t40.5 -98.5q0 -57 -40.5 -98.5t-98.5 -41.5q-57 0 -98.5 41.5t-41.5 98.5zM371 307q0 -51 30 -74.5 t70 -23.5q39 0 73 15.5t50 47.5v185q-102 0 -162.5 -40t-60.5 -110zM596 1262q0 58 41 98.5t98 40.5q59 0 99 -40.5t40 -98.5q0 -57 -40.5 -98.5t-98.5 -41.5q-57 0 -98 41.5t-41 98.5z" />
<glyph unicode="&#xe5;" horiz-adv-x="1071" d="M35 260q0 93 49 165.5t131.5 115t178 65t202.5 25.5v41q0 57 -38 85.5t-105 28.5q-176 0 -342 -114v252q74 47 185.5 77.5t238.5 30.5q68 0 121.5 -8.5t108 -34.5t91 -68.5t59.5 -115.5t23 -172v-371q0 -46 25 -55q8 -4 20 -4q37 0 68 22v-186q-48 -33 -111.5 -49.5 t-114.5 -16.5q-147 0 -188 107q-43 -52 -122.5 -79.5t-147.5 -27.5q-50 0 -95 8t-89 29t-76 52.5t-52 82.5t-20 115zM328 1274q0 83 58.5 138.5t143.5 55.5q86 0 145.5 -55.5t59.5 -138.5q0 -81 -60 -138t-145 -57t-143.5 56.5t-58.5 138.5zM371 307q0 -51 30 -74.5 t70 -23.5q39 0 73 15.5t50 47.5v185q-102 0 -162.5 -40t-60.5 -110zM467 1274q0 -28 18.5 -47t44.5 -19q28 0 47 19t19 47q0 29 -19 48t-47 19q-27 0 -45 -19t-18 -48z" />
<glyph unicode="&#xe6;" horiz-adv-x="1705" d="M66 266q0 94 47.5 166t128 114.5t174.5 65t200 25.5v41q0 57 -37.5 86t-105.5 29q-169 0 -332 -127v264q171 108 416 108q192 0 281 -92q124 90 321 90q238 0 365 -141.5t127 -390.5q0 -22 -4 -72h-693q10 -84 67.5 -141t141.5 -68q58 -4 82 -4q173 0 320 100l47 -221 q-69 -52 -184.5 -88.5t-268.5 -36.5q-142 0 -240.5 37t-168.5 119q-143 -149 -353 -149q-63 0 -118 14t-105 45t-79 89t-29 138zM401 313q0 -51 30 -74.5t71 -23.5q38 0 74 20.5t55 59.5q-17 45 -17 135q0 5 1 16.5t1 16.5h-4q-86 2 -148.5 -40t-62.5 -110zM948 618h369 q-13 205 -176 205q-74 0 -126 -54t-67 -151z" />
<glyph unicode="&#xe7;" horiz-adv-x="972" d="M55 502q0 114 41 211t115 166q161 153 424 153q172 0 287 -71v-269q-99 86 -242 86q-114 0 -190 -74.5t-76 -201.5t76 -202t190 -75q143 0 242 86v-268q-102 -66 -260 -72l-33 -67q67 -5 105 -38t38 -93v-19q-6 -55 -43.5 -90.5t-82.5 -48t-97 -12.5q-82 0 -137 28v142 q43 -35 104 -35q29 0 46.5 12t17.5 33t-15.5 32t-40.5 11q-26 0 -47 -12l-28 28l59 138q-173 28 -297 143q-156 149 -156 379z" />
<glyph unicode="&#xe8;" horiz-adv-x="1167" d="M55 502q0 250 157.5 391t408.5 141q238 0 364.5 -141.5t126.5 -390.5q0 -32 -4 -64h-692q20 -95 73.5 -151t135.5 -66q5 0 40.5 -3t53.5 -3q173 0 307 94l47 -213q-68 -52 -184.5 -88.5t-267.5 -36.5q-163 0 -290 61t-201.5 182.5t-74.5 287.5zM307 1413h252l146 -297 h-162zM410 616h368q-13 205 -176 205q-74 0 -125.5 -54t-66.5 -151z" />
<glyph unicode="&#xe9;" horiz-adv-x="1167" d="M55 502q0 250 157.5 391t408.5 141q238 0 364.5 -141.5t126.5 -390.5q0 -32 -4 -64h-692q20 -95 73.5 -151t135.5 -66q5 0 40.5 -3t53.5 -3q173 0 307 94l47 -213q-68 -52 -184.5 -88.5t-267.5 -36.5q-163 0 -290 61t-201.5 182.5t-74.5 287.5zM410 616h368 q-13 205 -176 205q-74 0 -125.5 -54t-66.5 -151zM543 1116l145 297h254l-237 -297h-162z" />
<glyph unicode="&#xea;" horiz-adv-x="1167" d="M55 502q0 250 157.5 391t408.5 141q238 0 364.5 -141.5t126.5 -390.5q0 -32 -4 -64h-692q20 -95 73.5 -151t135.5 -66q5 0 40.5 -3t53.5 -3q173 0 307 94l47 -213q-68 -52 -184.5 -88.5t-267.5 -36.5q-163 0 -290 61t-201.5 182.5t-74.5 287.5zM289 1102l229 311h164 l238 -311h-201l-121 162l-113 -162h-196zM410 616h368q-13 205 -176 205q-74 0 -125.5 -54t-66.5 -151z" />
<glyph unicode="&#xeb;" horiz-adv-x="1167" d="M55 502q0 250 157.5 391t408.5 141q238 0 364.5 -141.5t126.5 -390.5q0 -32 -4 -64h-692q20 -95 73.5 -151t135.5 -66q5 0 40.5 -3t53.5 -3q173 0 307 94l47 -213q-68 -52 -184.5 -88.5t-267.5 -36.5q-163 0 -290 61t-201.5 182.5t-74.5 287.5zM264 1262q0 58 41 98.5 t98 40.5q59 0 99.5 -40.5t40.5 -98.5q0 -57 -41 -98.5t-99 -41.5q-57 0 -98 41.5t-41 98.5zM410 616h368q-13 205 -176 205q-74 0 -125.5 -54t-66.5 -151zM672 1262q0 58 41 98.5t98 40.5q59 0 99 -40.5t40 -98.5q0 -57 -40.5 -98.5t-98.5 -41.5q-57 0 -98 41.5t-41 98.5z " />
<glyph unicode="&#xec;" horiz-adv-x="618" d="M-10 1413h252l145 -297h-162zM137 0v1006h344v-1006h-344z" />
<glyph unicode="&#xed;" horiz-adv-x="618" d="M137 0v1006h344v-1006h-344zM233 1116l142 297h256l-236 -297h-162z" />
<glyph unicode="&#xee;" horiz-adv-x="618" d="M-2 1102l229 311h166l236 -311h-201l-119 162l-114 -162h-197zM137 0v1006h344v-1006h-344z" />
<glyph unicode="&#xef;" horiz-adv-x="618" d="M-33 1262q0 58 40.5 98.5t98.5 40.5q57 0 98.5 -40.5t41.5 -98.5q0 -57 -41.5 -98.5t-98.5 -41.5q-58 0 -98.5 41.5t-40.5 98.5zM137 0v1006h344v-1006h-344zM373 1262q0 58 41 98.5t98 40.5q58 0 98.5 -40.5t40.5 -98.5q0 -57 -40.5 -98.5t-98.5 -41.5q-57 0 -98 41.5 t-41 98.5z" />
<glyph unicode="&#xf0;" horiz-adv-x="1255" d="M55 457q0 215 144 357t358 142q29 0 41 -2q184 -11 274 -114q-26 173 -176 270l-196 -119l-158 139l115 72q-110 21 -205 21h-2h-6h-15l123 239q226 -6 396 -76l145 93l158 -154l-105 -61q98 -88 170 -228q84 -169 84 -379q0 -153 -45 -290q-62 -185 -197 -289.5 t-348 -104.5q-160 0 -284.5 56t-197.5 167t-73 261zM406 467q0 -111 57 -180.5t149 -69.5t150.5 70t58.5 180t-58.5 180t-150.5 70t-149 -69.5t-57 -180.5z" />
<glyph unicode="&#xf1;" horiz-adv-x="1261" d="M137 0v1006h318l6 -142q50 90 136 134t183 44q344 0 344 -397v-645h-344v639q0 74 -39 113q-32 32 -86 32q-52 0 -98.5 -30.5t-75.5 -83.5v-670h-344zM326 1165q0 43 8.5 80t28 72t57 56t90.5 22h10h4h2q31 0 64.5 -12t68 -30t46.5 -22q16 -8 38 -8q41 0 41 47 q0 19 -2 25h154q4 -32 4 -49q0 -43 -8.5 -80t-28 -72t-57 -56t-90.5 -22h-11h-6h-2q-31 0 -63.5 11.5t-68.5 31t-46 23.5q-24 8 -37 8q-18 0 -30.5 -12.5t-12.5 -36.5q0 -2 1 -12t1 -13h-153q-2 16 -2 49z" />
<glyph unicode="&#xf2;" horiz-adv-x="1251" d="M55 502q0 158 75 280t204 187t291 65q251 0 411 -145t160 -387q0 -107 -37.5 -202.5t-107.5 -169t-180.5 -116.5t-247.5 -43q-162 0 -290.5 65t-203 186.5t-74.5 279.5zM307 1413h252l146 -297h-162zM412 502q0 -118 59.5 -193.5t153.5 -75.5q95 0 155 75t60 194 t-60 193.5t-155 74.5q-94 0 -153.5 -75t-59.5 -193z" />
<glyph unicode="&#xf3;" horiz-adv-x="1251" d="M55 502q0 158 75 280t204 187t291 65q251 0 411 -145t160 -387q0 -107 -37.5 -202.5t-107.5 -169t-180.5 -116.5t-247.5 -43q-162 0 -290.5 65t-203 186.5t-74.5 279.5zM412 502q0 -118 59.5 -193.5t153.5 -75.5q95 0 155 75t60 194t-60 193.5t-155 74.5 q-94 0 -153.5 -75t-59.5 -193zM547 1116l141 297h258l-237 -297h-162z" />
<glyph unicode="&#xf4;" horiz-adv-x="1251" d="M55 502q0 158 75 280t204 187t291 65q251 0 411 -145t160 -387q0 -107 -37.5 -202.5t-107.5 -169t-180.5 -116.5t-247.5 -43q-162 0 -290.5 65t-203 186.5t-74.5 279.5zM313 1102l230 311h166l235 -311h-201l-118 162l-115 -162h-197zM412 502q0 -118 59.5 -193.5 t153.5 -75.5q95 0 155 75t60 194t-60 193.5t-155 74.5q-94 0 -153.5 -75t-59.5 -193z" />
<glyph unicode="&#xf5;" horiz-adv-x="1251" d="M55 502q0 158 75 280t204 187t291 65q251 0 411 -145t160 -387q0 -107 -37.5 -202.5t-107.5 -169t-180.5 -116.5t-247.5 -43q-162 0 -290.5 65t-203 186.5t-74.5 279.5zM330 1165q0 43 8.5 80t28 72t57 56t90.5 22h10h4h2q32 0 65.5 -11.5t68.5 -30t45 -22.5q16 -8 39 -8 q40 0 40 47v25h152q4 -32 4 -49q0 -43 -8.5 -80t-28 -72t-57 -56t-90.5 -22h-10h-7q-32 0 -65 11.5t-69.5 31t-45.5 23.5q-24 8 -37 8q-18 0 -29.5 -12.5t-11.5 -36.5v-25h-153q-2 16 -2 49zM412 502q0 -118 59.5 -193.5t153.5 -75.5q95 0 155 75t60 194t-60 193.5 t-155 74.5q-94 0 -153.5 -75t-59.5 -193z" />
<glyph unicode="&#xf6;" horiz-adv-x="1251" d="M55 502q0 158 75 280t204 187t291 65q251 0 411 -145t160 -387q0 -107 -37.5 -202.5t-107.5 -169t-180.5 -116.5t-247.5 -43q-162 0 -290.5 65t-203 186.5t-74.5 279.5zM276 1262q0 58 40.5 98.5t99.5 40.5q57 0 98 -40.5t41 -98.5q0 -57 -41 -98.5t-98 -41.5 q-58 0 -99 41.5t-41 98.5zM412 502q0 -118 59.5 -193.5t153.5 -75.5q95 0 155 75t60 194t-60 193.5t-155 74.5q-94 0 -153.5 -75t-59.5 -193zM682 1262q0 58 41 98.5t98 40.5q59 0 100.5 -40.5t41.5 -98.5q0 -57 -42 -98.5t-100 -41.5q-57 0 -98 41.5t-41 98.5z" />
<glyph unicode="&#xf7;" horiz-adv-x="1200" d="M76 414v235h1048v-235h-1048zM434 154q0 71 50 121.5t120 50.5t121 -51t51 -121t-50.5 -120t-121.5 -50q-70 0 -120 50t-50 120zM434 907q0 71 50 120.5t120 49.5q71 0 121.5 -50t50.5 -120t-50.5 -120t-121.5 -50q-70 0 -120 49.5t-50 120.5z" />
<glyph unicode="&#xf8;" horiz-adv-x="1261" d="M61 502q0 238 161 384t409 146q139 0 254 -47l96 119l154 -133l-78 -99q143 -146 143 -370q0 -107 -37 -202.5t-107 -169t-181 -116.5t-248 -43q-140 0 -250 49l-96 -120l-156 135l80 100q-144 144 -144 367zM418 502q0 -40 10 -88l274 342q-40 14 -71 14 q-94 0 -153.5 -75t-59.5 -193zM557 248q43 -15 74 -15q94 0 153.5 75.5t59.5 193.5q0 42 -10 90z" />
<glyph unicode="&#xf9;" horiz-adv-x="1263" d="M137 373v301v332h344v-629q0 -72 39 -113q36 -31 88 -31t98 30t74 83v660h346v-1006h-323l-4 113q-67 -65 -155 -100.5t-169 -35.5q-177 0 -257.5 101.5t-80.5 294.5zM307 1413h252l146 -297h-162z" />
<glyph unicode="&#xfa;" horiz-adv-x="1263" d="M137 373v301v332h344v-629q0 -72 39 -113q36 -31 88 -31t98 30t74 83v660h346v-1006h-323l-4 113q-67 -65 -155 -100.5t-169 -35.5q-177 0 -257.5 101.5t-80.5 294.5zM557 1116l141 297h256l-235 -297h-162z" />
<glyph unicode="&#xfb;" horiz-adv-x="1263" d="M137 373v301v332h344v-629q0 -72 39 -113q36 -31 88 -31t98 30t74 83v660h346v-1006h-323l-4 113q-67 -65 -155 -100.5t-169 -35.5q-177 0 -257.5 101.5t-80.5 294.5zM322 1102l227 311h166l235 -311h-200l-119 162l-113 -162h-196z" />
<glyph unicode="&#xfc;" horiz-adv-x="1263" d="M137 373v301v332h344v-629q0 -72 39 -113q36 -31 88 -31t98 30t74 83v660h346v-1006h-323l-4 113q-67 -65 -155 -100.5t-169 -35.5q-177 0 -257.5 101.5t-80.5 294.5zM297 1262q0 58 40.5 98.5t98.5 40.5t98.5 -40.5t40.5 -98.5q0 -57 -40.5 -98.5t-98.5 -41.5 t-98.5 41.5t-40.5 98.5zM705 1262q0 58 40.5 98.5t98.5 40.5q57 0 98 -40.5t41 -98.5q0 -57 -41 -98.5t-98 -41.5q-58 0 -98.5 41.5t-40.5 98.5z" />
<glyph unicode="&#xfd;" horiz-adv-x="1196" d="M-6 1006h397l172 -435q30 -78 55 -182q19 80 58 182l166 435h360l-606 -1452h-383l217 489zM510 1116l139 297h258l-237 -297h-160z" />
<glyph unicode="&#xfe;" horiz-adv-x="1228" d="M129 -444v1878h344v-486q103 78 250 88h29q80 0 153 -32t134.5 -94t98 -166.5t36.5 -237.5q0 -118 -39 -218.5t-103.5 -167t-148.5 -105t-174 -40.5h-21q-117 0 -213 43v-462h-346zM475 254q62 -27 123 -27h14q97 6 150 79.5t53 199.5q0 128 -49 201t-143 73 q-76 0 -148 -55v-471z" />
<glyph unicode="&#xff;" horiz-adv-x="1196" d="M-6 1006h397l172 -435q28 -69 55 -182q19 80 58 182l166 435h360l-606 -1452h-383l217 489zM264 1262q0 58 40 98.5t99 40.5q57 0 98.5 -40.5t41.5 -98.5q0 -57 -41.5 -98.5t-98.5 -41.5q-58 0 -98.5 41.5t-40.5 98.5zM670 1262q0 58 41 98.5t98 40.5q59 0 99 -40.5 t40 -98.5q0 -57 -40.5 -98.5t-98.5 -41.5q-57 0 -98 41.5t-41 98.5z" />
<glyph unicode="&#x152;" horiz-adv-x="2168" d="M76 717q0 162 58 301.5t161 239t252 156t325 56.5q137 0 265 -36h942v-260h-551v-322h532v-252h-532v-342h569v-258h-958q-125 -39 -271 -39q-233 0 -414 97.5t-279.5 269.5t-98.5 389zM471 717q0 -201 118.5 -334t303.5 -133q158 0 264 80v762v10q-111 82 -264 82 q-188 0 -305 -131.5t-117 -335.5z" />
<glyph unicode="&#x153;" horiz-adv-x="1923" d="M55 504q0 236 161 383t409 147q117 0 215.5 -37.5t165.5 -105.5q147 141 370 141q238 0 365 -141t127 -389q0 -47 -4 -72h-690q12 -84 65 -139t137 -70q40 -6 84 -6q184 0 324 102l47 -221q-169 -125 -434 -125q-238 0 -387 152q-142 -152 -389 -152q-245 0 -405.5 147.5 t-160.5 385.5zM412 504q0 -120 59.5 -195.5t153.5 -75.5t153.5 75.5t59.5 195.5q0 118 -59.5 193t-153.5 75t-153.5 -75t-59.5 -193zM1167 616h369q-16 205 -176 205q-76 0 -127 -54t-66 -151z" />
<glyph unicode="&#x178;" horiz-adv-x="1490" d="M-4 1434h432l344 -531l328 531h395l-565 -822v-612h-371v602zM418 1647q0 59 40 99t99 40q57 0 98 -40.5t41 -98.5t-41 -99t-98 -41q-58 0 -98.5 40.5t-40.5 99.5zM823 1647q0 58 41.5 98.5t98.5 40.5q59 0 99 -40t40 -99t-40.5 -99.5t-98.5 -40.5q-57 0 -98.5 41 t-41.5 99z" />
<glyph unicode="&#x2c6;" horiz-adv-x="671" d="M20 1102l230 311h166l235 -311h-200l-121 162l-113 -162h-197z" />
<glyph unicode="&#x2dc;" horiz-adv-x="655" d="M20 1165q0 43 8.5 80t28.5 72t57.5 56t90.5 22h10h4h2q32 0 65.5 -11.5t68 -30t44.5 -22.5q16 -8 39 -8q41 0 41 47v25h154q0 -8 1 -24.5t1 -24.5q0 -43 -8.5 -80t-28 -72t-57 -56t-90.5 -22h-11h-6q-32 0 -64.5 11t-69.5 31.5t-44 23.5q-24 8 -39 8q-18 0 -29.5 -12.5 t-11.5 -36.5v-25h-153q-3 24 -3 49z" />
<glyph unicode="&#x2000;" horiz-adv-x="937" />
<glyph unicode="&#x2001;" horiz-adv-x="1874" />
<glyph unicode="&#x2002;" horiz-adv-x="937" />
<glyph unicode="&#x2003;" horiz-adv-x="1874" />
<glyph unicode="&#x2004;" horiz-adv-x="624" />
<glyph unicode="&#x2005;" horiz-adv-x="468" />
<glyph unicode="&#x2006;" horiz-adv-x="312" />
<glyph unicode="&#x2007;" horiz-adv-x="312" />
<glyph unicode="&#x2008;" horiz-adv-x="234" />
<glyph unicode="&#x2009;" horiz-adv-x="374" />
<glyph unicode="&#x200a;" horiz-adv-x="104" />
<glyph unicode="&#x2010;" horiz-adv-x="782" d="M72 473v266h639v-266h-639z" />
<glyph unicode="&#x2011;" horiz-adv-x="782" d="M72 473v266h639v-266h-639z" />
<glyph unicode="&#x2012;" horiz-adv-x="782" d="M72 473v266h639v-266h-639z" />
<glyph unicode="&#x2013;" horiz-adv-x="1024" d="M0 473v266h1024v-266h-1024z" />
<glyph unicode="&#x2014;" horiz-adv-x="2048" d="M0 475v264h2048v-264h-2048z" />
<glyph unicode="&#x2018;" horiz-adv-x="563" d="M111 1063q0 113 36 199q33 74 87.5 125.5t107.5 70.5l64 -96q-62 -26 -94.5 -78.5t-32.5 -105.5h22h4h2q70 0 108 -43t38 -113q0 -67 -49 -115.5t-117 -48.5q-111 0 -156 96q-20 46 -20 109z" />
<glyph unicode="&#x2019;" horiz-adv-x="563" d="M111 1294q0 67 48.5 115.5t116.5 48.5q111 0 156 -96q21 -48 21 -109q0 -115 -37 -198q-31 -74 -86.5 -126t-108.5 -71l-63 96q62 26 94.5 78.5t34.5 106.5h-25h-4h-2q-70 0 -107.5 42.5t-37.5 112.5z" />
<glyph unicode="&#x201a;" horiz-adv-x="575" d="M117 158q0 69 49 118.5t117 49.5q51 0 91.5 -25.5t63.5 -73.5q21 -48 21 -110q0 -82 -37 -166q-36 -81 -83.5 -128.5t-129.5 -90.5l-66 92q119 66 136 178h-15q-71 0 -109 43t-38 113z" />
<glyph unicode="&#x201c;" horiz-adv-x="983" d="M111 1063q0 113 36 199q33 74 87.5 125.5t107.5 70.5l64 -96q-62 -26 -94.5 -78.5t-32.5 -105.5h22h4h2q70 0 108 -43t38 -113q0 -67 -49 -115.5t-117 -48.5q-111 0 -156 96q-20 46 -20 109zM528 1063q0 112 39 199q31 73 86 124.5t107 71.5l65 -96q-62 -26 -94.5 -78 t-34.5 -106h25h2h2q70 0 108.5 -43t38.5 -113q0 -67 -49.5 -115.5t-117.5 -48.5q-112 0 -154 96q-23 44 -23 109z" />
<glyph unicode="&#x201d;" horiz-adv-x="983" d="M111 1294q0 67 48.5 115.5t116.5 48.5q111 0 156 -96q21 -48 21 -109q0 -115 -37 -198q-31 -74 -86.5 -126t-108.5 -71l-63 96q62 26 94.5 78.5t34.5 106.5h-25h-4h-2q-70 0 -107.5 42.5t-37.5 112.5zM528 1294q0 67 49 115.5t117 48.5q111 0 156 -96q22 -51 22 -109 q0 -113 -38 -198q-31 -74 -86.5 -126t-108.5 -71l-64 96q62 26 95 78.5t35 106.5h-25h-4q-70 0 -109 43t-39 112z" />
<glyph unicode="&#x201e;" horiz-adv-x="995" d="M117 158q0 69 49 118.5t117 49.5q51 0 91.5 -25.5t63.5 -73.5q21 -48 21 -110q0 -82 -37 -166q-36 -81 -83.5 -128.5t-129.5 -90.5l-66 92q119 66 136 178h-15q-71 0 -109 43t-38 113zM537 158q0 69 48.5 118.5t116.5 49.5q51 0 92 -25.5t64 -73.5q21 -48 21 -110 q0 -82 -37 -166q-36 -81 -83.5 -128.5t-129.5 -90.5l-66 92q118 65 135 178h-14q-71 0 -109 43t-38 113z" />
<glyph unicode="&#x2022;" horiz-adv-x="690" d="M96 586q0 103 72.5 176.5t175.5 73.5t176.5 -73.5t73.5 -176.5t-73.5 -175.5t-176.5 -72.5t-175.5 72.5t-72.5 175.5z" />
<glyph unicode="&#x2026;" horiz-adv-x="1693" d="M102 150q0 73 52.5 125.5t124.5 52.5q73 0 125.5 -52t52.5 -126q0 -72 -52.5 -124.5t-125.5 -52.5q-72 0 -124.5 52.5t-52.5 124.5zM670 150q0 74 52 126t126 52q72 0 124 -52.5t52 -125.5q0 -72 -52 -124.5t-124 -52.5q-73 0 -125.5 52.5t-52.5 124.5zM1239 150 q0 74 51.5 126t124.5 52t124.5 -52t51.5 -126q0 -72 -51.5 -124.5t-124.5 -52.5t-124.5 52.5t-51.5 124.5z" />
<glyph unicode="&#x202f;" horiz-adv-x="374" />
<glyph unicode="&#x2039;" horiz-adv-x="655" d="M35 481l289 482h297l-261 -482l261 -481h-297z" />
<glyph unicode="&#x203a;" horiz-adv-x="655" d="M35 0l258 481l-258 482h295l291 -482l-291 -481h-295z" />
<glyph unicode="&#x205f;" horiz-adv-x="468" />
<glyph unicode="&#x2122;" horiz-adv-x="1531" d="M76 1311v123h563h2v-121h-195v-543h-180v541h-190zM729 770v664h170l199 -279l198 279h160v-664h-174v387q-15 -23 -90 -129t-76 -106h-35h-16l-162 233v-385h-174z" />
<glyph unicode="&#x25fc;" horiz-adv-x="1003" d="M0 0v1004h1004v-1004h-1004z" />
<glyph unicode="&#xfb01;" horiz-adv-x="1333" d="M25 762v244h125q-3 230 165 352q71 50 142 68t166 18q125 0 219 -55v-252q-66 53 -166 53q-84 0 -133 -41t-49 -117v-26h241v-244h-241v-764h-347v764h-122zM852 -2v1006h344v-1006h-344z" />
<glyph unicode="&#xfb02;" horiz-adv-x="1228" d="M25 762v244h125q-3 231 174 350q82 54 162.5 71t177.5 17q242 0 428 -103v-1343h-342v1167q-34 25 -115 25q-65 0 -103 -41t-38 -117v-26h184v-244h-184v-764h-347v764h-122z" />
</font>
</defs>
</svg>
